<svg width="830" height="507" viewBox="0 0 830 507" fill="none" xmlns="http://www.w3.org/2000/svg">
<path d="M824.869 100.743C824.869 100.743 814.872 94.6441 803.823 118.417C792.773 142.19 788.743 155.835 788.743 155.835C788.743 155.835 785.766 160.833 782.298 157.76C778.83 154.687 773.927 145.802 768.235 147.619C762.375 149.521 760.665 156.205 762.148 165.879C763.631 175.554 766.082 196.863 766.31 198.789C766.537 200.714 765.532 203.572 762.83 201.802C760.127 200.032 744.342 183.733 737.024 191.685C729.705 199.638 738.22 225.91 739.152 228.756C740.085 231.602 739.499 232.906 738.136 233.683C736.773 234.46 731.989 228.457 727.373 223.985C722.758 219.512 716.479 215.16 712.653 220.098C708.826 225.037 708.252 245.007 728.378 276.673L738.662 290.736L756.085 289.133C793.156 283.441 807.817 269.881 809.013 263.746C810.208 257.611 802.842 255.794 796.409 255.22C789.975 254.646 782.298 254.969 781.987 253.438C781.676 251.907 782.274 250.676 785.036 249.444C787.799 248.212 813.186 237.354 814.37 226.604C815.554 215.853 792.845 214.753 789.772 213.844C786.698 212.935 788.181 210.328 789.772 209.24C791.362 208.152 809.036 195.966 817.276 190.717C825.515 185.467 829.318 179.811 826.926 174.143C824.534 168.678 814.645 170.83 810.041 170.232C805.437 169.634 807.255 164.11 807.255 164.11C807.255 164.11 814.872 152.151 825.491 128.151C836.11 104.151 824.642 100.647 824.642 100.647" fill="#F5F5F5"/>
<path d="M814.968 122.017C814.968 122.017 814.908 122.196 814.764 122.531C814.621 122.866 814.406 123.392 814.143 124.026L811.679 129.706C809.527 134.644 806.37 141.772 802.435 150.561C794.567 168.14 783.493 192.319 771.176 218.986C758.859 245.653 747.69 269.833 739.726 287.375L730.315 308.147L727.756 313.791C727.457 314.413 727.23 314.903 727.074 315.25C726.999 315.418 726.915 315.582 726.823 315.74C726.876 315.565 726.94 315.393 727.015 315.226C727.17 314.868 727.373 314.377 727.636 313.743C728.21 312.416 729.048 310.503 730.1 308.051C732.252 303.113 735.409 295.997 739.344 287.208C747.212 269.629 758.285 245.45 770.603 218.771C782.92 192.092 794.053 167.936 802.017 150.405C805.987 141.664 809.192 134.573 811.428 129.646L813.999 124.002C814.286 123.368 814.513 122.89 814.681 122.531C814.848 122.172 814.968 122.017 814.968 122.017Z" fill="#E0E0E0"/>
<path d="M774.632 160.343C774.847 160.718 775.012 161.12 775.123 161.539C775.41 162.292 775.78 163.404 776.235 164.779C777.12 167.542 778.256 171.368 779.428 175.625L782.381 186.531C782.74 187.835 783.039 188.923 783.29 189.832C783.435 190.216 783.528 190.619 783.565 191.028C783.35 190.652 783.185 190.25 783.075 189.832C782.788 189.079 782.417 187.966 781.975 186.579C781.114 183.817 780.026 179.966 778.854 175.709L775.828 164.827L774.907 161.539C774.771 161.152 774.678 160.751 774.632 160.343V160.343Z" fill="#E0E0E0"/>
<path d="M785.18 191.279C785.18 191.123 792.929 188.433 802.603 185.3C812.277 182.167 820.17 179.691 820.217 179.847C820.265 180.002 812.468 182.693 802.794 185.826C793.12 188.959 785.228 191.434 785.18 191.279Z" fill="#E0E0E0"/>
<path d="M764.408 231.387C764.834 231.307 765.267 231.271 765.7 231.279L769.191 231.16C772.133 231.052 776.211 230.897 780.695 230.55C785.18 230.203 789.233 229.796 792.175 229.462L795.643 229.067C796.069 228.988 796.503 228.964 796.935 228.995C796.547 229.136 796.147 229.236 795.739 229.294C794.926 229.45 793.742 229.653 792.283 229.868C789.365 230.311 785.299 230.813 780.803 231.148C776.307 231.483 772.217 231.578 769.251 231.566C767.78 231.566 766.584 231.566 765.759 231.506C765.306 231.529 764.851 231.488 764.408 231.387V231.387Z" fill="#E0E0E0"/>
<path d="M748.719 205.509C748.996 205.794 749.237 206.111 749.436 206.454C749.867 207.076 750.489 207.997 751.23 209.145C752.725 211.429 754.746 214.609 756.946 218.137C759.146 221.665 761.12 224.882 762.519 227.225C763.224 228.421 763.774 229.354 764.145 230.024C764.371 230.353 764.552 230.711 764.683 231.088C764.395 230.81 764.15 230.492 763.954 230.143C763.523 229.509 762.913 228.601 762.16 227.453C760.677 225.169 758.656 221.988 756.444 218.448C754.232 214.908 752.27 211.704 750.871 209.36C750.178 208.164 749.675 207.231 749.245 206.573C749.027 206.241 748.851 205.884 748.719 205.509Z" fill="#E0E0E0"/>
<path d="M725.879 238.586C726.227 238.95 726.536 239.351 726.799 239.782L729.107 243.226C731.021 246.143 733.652 250.197 736.522 254.694C739.392 259.19 741.963 263.292 743.792 266.269L745.945 269.857C746.223 270.281 746.463 270.729 746.662 271.196C746.314 270.83 746.006 270.43 745.741 270L743.445 266.556C741.52 263.626 738.889 259.573 736.019 255.076C733.149 250.58 730.59 246.478 728.749 243.501C727.888 242.09 727.17 240.894 726.608 239.913C726.319 239.498 726.074 239.053 725.879 238.586V238.586Z" fill="#E0E0E0"/>
<path d="M746.387 270.263C746.917 270.142 747.458 270.078 748.001 270.072L752.426 269.761C756.157 269.498 761.323 269.115 767.003 268.565C772.683 268.015 777.766 267.369 781.532 266.855L785.921 266.269C786.458 266.172 787.002 266.124 787.547 266.126C787.031 266.303 786.498 266.427 785.957 266.496C784.929 266.7 783.434 266.963 781.592 267.262C777.885 267.872 772.755 268.589 767.063 269.163C761.371 269.737 756.193 270.06 752.45 270.215C750.572 270.287 749.066 270.335 748.013 270.335C747.47 270.357 746.926 270.333 746.387 270.263V270.263Z" fill="#E0E0E0"/>
<path d="M112.766 218.532C140.665 199.913 147.445 164.72 146.883 132.923C146.776 127.613 147.457 122.041 144.97 117.377C142.483 112.713 136.599 109.413 131.732 111.577C127.726 113.371 125.908 117.927 123.624 121.682C120.544 126.699 116.114 130.747 110.841 133.365C107.397 135.063 103.152 136.068 99.8036 134.178C95.2116 131.595 94.7572 125.269 94.8768 119.996L95.5225 90.5305C95.6301 85.2569 95.7378 79.8757 94.1473 74.8412C92.5569 69.8068 88.9694 65.1192 83.911 63.6363C78.8527 62.1535 72.5268 64.9518 71.3668 70.0938C70.8885 72.2343 71.2951 74.4705 71.1157 76.6589C70.9363 78.8473 69.9199 81.2509 67.7435 81.8249C65.567 82.3989 63.4983 80.8802 61.9198 79.3256C56.4907 73.9085 52.8554 67.0086 49.4712 60.1924C46.087 53.3761 42.7865 46.2849 37.8837 40.4134C32.9808 34.5419 26.1167 29.8303 18.4754 29.2802C10.8341 28.7302 2.61873 33.2863 0.537996 40.6645C-1.54274 48.0428 2.76223 55.6721 7.44987 61.7589C14.43 70.7756 22.6744 78.7381 31.9284 85.4004C33.6026 86.5962 35.3963 87.8997 36.0182 89.8608C37.1183 93.4483 33.6983 96.8325 30.1586 97.9446C26.1526 99.1404 21.7878 98.7219 17.6742 99.1404C13.5605 99.559 8.95662 101.305 7.31833 105.12C5.05822 110.477 9.53061 116.193 13.9671 119.96C22.8551 127.505 32.9655 133.478 43.8628 137.622C47.7731 139.105 51.8868 140.408 55.0079 143.183C58.129 145.957 59.9825 150.716 58.0094 154.4C56.0363 158.083 51.0975 159.183 46.9959 158.394C42.8942 157.604 39.2469 155.32 35.3485 153.802C28.042 150.956 18.6069 151.314 13.7638 157.509C10.6069 161.575 10.2481 167.303 11.7309 172.229C13.2138 177.156 16.3229 181.425 19.6234 185.383C31.1751 199.183 46.0751 210.376 63.008 216.475C79.9409 222.574 95.6899 224.367 112.707 218.508" fill="#EBEBEB"/>
<path d="M110.626 219.142C106.141 203.058 93.8842 165.21 86.5299 147.392L81.065 134.238C79.2593 129.921 77.4775 125.652 75.4566 121.574C71.5733 113.768 67.2617 106.183 62.5416 98.8534C58.0692 91.798 53.5729 85.2688 49.3875 79.1821C45.2021 73.0953 41.0167 67.5347 37.0944 62.5959C30.9091 54.7701 24.1114 47.4485 16.7654 40.7004C14.1704 38.3087 12.1017 36.515 10.6786 35.3191L8.98055 33.8602C8.60985 33.5613 8.40656 33.4178 8.40656 33.4178C8.40656 33.4178 8.57397 33.5972 8.92076 33.92L10.4993 35.3311C11.8745 36.5269 13.9193 38.3924 16.4784 40.8199C23.714 47.6477 30.4293 55.0066 36.5683 62.8351C40.4667 67.7858 44.5086 73.3823 48.7537 79.4571C52.9989 85.5319 57.4474 92.085 61.9078 99.1285C66.5983 106.461 70.8819 114.046 74.7391 121.849C76.7361 125.915 78.5179 130.22 80.3236 134.489C82.1293 138.758 83.9111 143.207 85.7885 147.643C93.095 165.437 105.388 203.249 109.908 219.285" fill="#E0E0E0"/>
<path d="M75.2054 121.49C75.4529 120.76 75.6291 120.007 75.7315 119.242C76.0185 117.783 76.3773 115.655 76.7839 113.048C77.609 107.81 78.5059 100.54 79.4745 92.5155C80.4431 84.4915 81.4596 77.2568 82.3923 72.043C82.8467 69.4361 83.2413 67.3314 83.5881 65.8845C83.7751 65.1388 83.8991 64.3788 83.9588 63.6124C83.6661 64.3229 83.4419 65.0596 83.2892 65.8127C82.8946 67.2477 82.4162 69.4002 81.8901 71.9473C80.7301 77.1372 79.6539 84.3959 78.6852 92.4557C77.7166 100.516 76.8795 107.607 76.2338 113.012C75.9109 115.523 75.6359 117.616 75.4206 119.23C75.2852 119.976 75.2132 120.732 75.2054 121.49V121.49Z" fill="#E0E0E0"/>
<path d="M6.73236 107.798C6.96074 107.871 7.19826 107.911 7.4379 107.918L9.4708 108.121C11.2406 108.3 13.7877 108.54 16.9208 108.934C23.1989 109.676 31.8447 111.027 41.3157 112.928C50.7866 114.83 59.2531 116.97 65.3518 118.68C68.4011 119.517 70.8526 120.259 72.5267 120.761L74.4879 121.335C74.7101 121.421 74.9438 121.473 75.1815 121.49C74.9823 121.359 74.7647 121.258 74.5357 121.191C74.0096 120.988 73.3399 120.749 72.6224 120.474C70.9602 119.876 68.5207 119.039 65.4474 118.082C59.3846 116.229 50.8942 114.016 41.4113 112.103C31.9284 110.19 23.3304 108.982 16.9806 108.372C13.8356 108.049 11.2645 107.894 9.49472 107.822H7.44986C7.21263 107.784 6.97159 107.776 6.73236 107.798V107.798Z" fill="#E0E0E0"/>
<path d="M103.953 197.246C104.135 196.987 104.292 196.711 104.419 196.421L105.615 194.029C106.644 191.901 108.007 188.792 109.777 184.929C113.197 177.216 117.585 166.406 122.285 154.423C126.985 142.441 131.278 131.559 134.542 123.786L138.465 114.602C138.895 113.574 139.254 112.749 139.529 112.103C139.664 111.815 139.773 111.515 139.852 111.206C139.659 111.458 139.502 111.736 139.385 112.031L138.19 114.423C137.161 116.552 135.738 119.661 134.04 123.511C130.62 131.236 126.219 142.047 121.532 154.029C116.844 166.011 112.527 176.845 109.239 184.618L105.316 193.802L104.264 196.301C104.122 196.602 104.018 196.92 103.953 197.246Z" fill="#E0E0E0"/>
<path d="M13.154 166.86C13.4401 167.01 13.7406 167.13 14.0509 167.219L16.6936 168.116L26.4277 171.38C34.643 174.131 45.9435 178.065 58.416 182.442C70.8885 186.818 82.2369 190.669 90.5 193.288C94.6256 194.591 97.9859 195.62 100.306 196.289L102.996 197.043C103.307 197.148 103.628 197.22 103.953 197.258C103.663 197.106 103.358 196.981 103.044 196.887L100.401 195.99L90.6675 192.75C82.4521 189.999 71.1516 186.065 58.6791 181.688C46.2066 177.312 34.8702 173.449 26.607 170.842C22.4695 169.539 19.1212 168.51 16.7893 167.841L14.1107 167.075C13.7996 166.972 13.4791 166.9 13.154 166.86V166.86Z" fill="#E0E0E0"/>
<path d="M571.928 34.3027H722.686L693.197 55.2655V72.7724C693.13 81.4224 689.631 89.6918 683.469 95.7623C677.306 101.833 668.985 105.207 660.335 105.143H565.733C557.083 105.207 548.762 101.833 542.6 95.7623C536.438 89.6918 532.938 81.4224 532.872 72.7724C532.91 67.6818 533.95 62.6484 535.933 57.9598C537.916 53.2712 540.804 49.0192 544.431 45.4468C548.057 41.8743 552.352 39.0514 557.071 37.1393C561.789 35.2272 566.837 34.2633 571.928 34.3027Z" fill="#F5F5F5"/>
<path d="M667.761 57.705C667.761 57.8724 642.649 58.0159 611.558 58.0159C580.466 58.0159 555.354 57.8724 555.354 57.705C555.354 57.5376 580.466 57.3941 611.558 57.3941C642.649 57.3941 667.761 57.5256 667.761 57.705Z" fill="#E0E0E0"/>
<path d="M667.761 69.3524C667.761 69.5198 642.649 69.6633 611.558 69.6633C580.466 69.6633 555.354 69.5198 555.354 69.3524C555.354 69.185 580.466 69.0415 611.558 69.0415C642.649 69.0415 667.761 69.173 667.761 69.3524Z" fill="#E0E0E0"/>
<path d="M343.202 393.11H164.809L193.867 414.133V455.389C193.867 456.521 194.09 457.641 194.524 458.687C194.957 459.732 195.593 460.682 196.393 461.481C197.194 462.281 198.145 462.915 199.191 463.347C200.237 463.779 201.358 464.001 202.489 463.999H343.202C344.334 464.001 345.455 463.779 346.501 463.347C347.547 462.915 348.497 462.281 349.298 461.481C350.099 460.682 350.734 459.732 351.168 458.687C351.601 457.641 351.824 456.521 351.824 455.389V401.72C351.821 399.436 350.911 397.246 349.295 395.632C347.678 394.017 345.487 393.11 343.202 393.11V393.11Z" fill="#F5F5F5"/>
<path d="M335.764 422.265C335.764 422.444 308.858 422.576 275.674 422.576C242.49 422.576 215.583 422.444 215.583 422.265C215.583 422.085 242.478 421.954 275.674 421.954C308.87 421.954 335.764 422.097 335.764 422.265Z" fill="#E0E0E0"/>
<path d="M335.764 438.109C335.764 438.277 308.858 438.42 275.674 438.42C242.49 438.42 215.583 438.277 215.583 438.109C215.583 437.942 242.478 437.799 275.674 437.799C308.87 437.799 335.764 437.942 335.764 438.109Z" fill="#E0E0E0"/>
<path d="M707.439 189.796H498.66C473.041 189.796 452.273 210.564 452.273 236.182V406.109C452.273 431.727 473.041 452.495 498.66 452.495H707.439C733.057 452.495 753.825 431.727 753.825 406.109V236.182C753.825 210.564 733.057 189.796 707.439 189.796Z" fill="#4D55CB"/>
<g opacity="0.4">
<path opacity="0.4" d="M707.439 189.796H498.66C473.041 189.796 452.273 210.564 452.273 236.182V406.109C452.273 431.727 473.041 452.495 498.66 452.495H707.439C733.057 452.495 753.825 431.727 753.825 406.109V236.182C753.825 210.564 733.057 189.796 707.439 189.796Z" fill="black"/>
</g>
<path d="M753.741 281.372H798.908L752.725 327.567L753.741 281.372Z" fill="#4D55CB"/>
<g opacity="0.4">
<path opacity="0.4" d="M753.741 281.372H798.908L752.725 327.567L753.741 281.372Z" fill="black"/>
</g>
<path d="M445.051 309.773L426.121 288.248C421.003 283.13 419.245 280.667 420.273 279.77C421.636 278.574 421.05 278.969 431.681 286.945C431.681 286.945 416.614 275.429 421.84 275.357C422.76 275.357 425.32 276.84 428.058 278.634C424.327 275.465 423.275 273.325 424.004 272.308C425.2 270.538 434.432 276.936 438.677 280.009C435.209 277.426 428.596 272.416 427.436 270.837C425.834 268.685 429.074 268.864 431.705 269.761C434.659 270.765 450.982 279.1 455.813 281.253C456.2 281.484 456.633 281.628 457.082 281.676C457.53 281.724 457.984 281.674 458.411 281.53C458.839 281.385 459.23 281.15 459.557 280.84C459.885 280.53 460.142 280.153 460.309 279.734C462.091 272.248 467.484 267.381 469.541 266.747C471.598 266.114 473.188 268.744 471.718 270.658C470.334 272.884 469.263 275.29 468.537 277.809C467.87 279.785 467.543 281.859 467.568 283.943C467.568 286.335 467.735 288.404 467.891 290.138L485.195 313.875L456.256 330.617L445.051 309.773Z" fill="#B78876"/>
<path d="M438.282 290.293C438.091 290.556 434.695 288.248 430.773 285.127C426.85 282.006 423.789 279.256 424.016 279.005C424.243 278.754 427.604 281.073 431.526 284.171C435.448 287.268 438.45 290.018 438.282 290.293Z" fill="#AA6550"/>
<path d="M441.942 286.514C441.75 286.79 438.031 284.517 433.631 281.456C429.23 278.395 425.81 275.68 426.001 275.417C426.193 275.154 429.912 277.402 434.312 280.464C438.713 283.525 442.133 286.239 441.942 286.514Z" fill="#AA6550"/>
<path d="M444.62 282.497C444.429 282.772 440.865 280.691 436.668 277.845C432.471 274.999 429.218 272.475 429.397 272.188C429.577 271.901 433.14 273.994 437.35 276.84C441.559 279.686 444.8 282.222 444.62 282.497Z" fill="#AA6550"/>
<path d="M469.505 293.355L538.481 380.817L522.684 417.589C522.684 417.589 503.766 413.404 498.026 405.439C492.286 397.475 445.051 309.773 445.051 309.773L469.505 293.355Z" fill="#B78876"/>
<path d="M644.598 170.998C649.561 175.303 649.549 182.884 648.975 189.425C648.401 195.967 647.958 203.417 652.491 208.176C656.234 212.098 663.014 213.808 663.875 219.154C664.079 220.41 663.889 221.698 663.331 222.841C662.773 223.985 661.874 224.927 660.759 225.54C659.643 226.152 658.366 226.403 657.101 226.26C655.837 226.116 654.648 225.585 653.698 224.738C655.157 228.959 654.153 234.233 650.494 236.792C646.834 239.351 640.7 237.773 639.564 233.456C639.75 234.176 639.785 234.928 639.668 235.663C639.55 236.398 639.283 237.101 638.882 237.728C638.481 238.355 637.955 238.892 637.337 239.307C636.719 239.722 636.022 240.005 635.289 240.138C634.557 240.271 633.805 240.253 633.081 240.083C632.356 239.912 631.674 239.595 631.078 239.15C630.481 238.704 629.983 238.141 629.614 237.495C629.245 236.848 629.013 236.133 628.933 235.393" fill="#263238"/>
<path d="M573.53 215.148C572.863 216.749 571.586 218.02 569.982 218.68C568.377 219.341 566.576 219.337 564.974 218.669C563.372 218.002 562.102 216.725 561.441 215.121C560.781 213.516 560.785 211.715 561.452 210.113C562.588 207.626 565.279 205.832 565.542 203.106C565.853 199.817 562.493 197.461 559.563 196.026C556.633 194.591 553.094 192.726 552.771 189.425C552.448 186.125 555.306 183.769 557.686 181.641C560.065 179.512 562.469 176.211 560.95 173.377C560.197 171.918 558.63 171.093 557.614 169.79C555.378 166.944 556.55 162.412 559.408 160.223C562.266 158.035 566.212 157.688 569.775 158.322C573.339 158.956 576.687 160.439 580.155 161.479C585.904 163.151 591.937 163.612 597.873 162.834C603.809 162.056 609.519 160.055 614.643 156.959" fill="#263238"/>
<path d="M594.708 292.266C600.886 293.513 607.307 292.281 612.584 288.836C617.862 285.39 621.573 280.008 622.918 273.851L639.887 196.05C640.946 191.558 641.093 186.899 640.32 182.348C639.548 177.798 637.87 173.448 635.387 169.557C632.905 165.666 629.667 162.313 625.865 159.695C622.064 157.077 617.776 155.248 613.256 154.316L611.486 154.053C602.841 152.782 594.035 154.814 586.821 159.745C579.608 164.676 574.516 172.144 572.562 180.66C568.783 197.079 564.825 215.267 563.629 224.2C561.153 242.699 579.175 248.272 579.175 248.272L575.934 263.818C575.291 266.915 575.267 270.109 575.863 273.216C576.458 276.322 577.662 279.281 579.404 281.921C581.146 284.561 583.393 286.831 586.016 288.6C588.638 290.37 591.584 291.603 594.684 292.231L594.708 292.266Z" fill="#B78876"/>
<path d="M575.886 192.905C575.781 193.592 575.947 194.292 576.348 194.859C576.75 195.426 577.356 195.814 578.038 195.943C578.369 196.018 578.712 196.027 579.046 195.968C579.38 195.909 579.699 195.784 579.984 195.6C580.269 195.416 580.515 195.177 580.707 194.897C580.898 194.617 581.032 194.302 581.1 193.969C581.211 193.284 581.05 192.582 580.65 192.014C580.249 191.446 579.643 191.058 578.959 190.932C578.628 190.857 578.285 190.848 577.95 190.907C577.615 190.965 577.295 191.09 577.009 191.274C576.723 191.458 576.476 191.696 576.283 191.977C576.09 192.257 575.955 192.572 575.886 192.905V192.905Z" fill="#263238"/>
<path d="M575.204 190.274C575.479 190.669 577.692 189.473 580.538 189.904C583.384 190.334 585.237 192.044 585.596 191.745C585.776 191.614 585.524 190.944 584.723 190.155C583.62 189.124 582.225 188.46 580.729 188.253C579.254 188.031 577.747 188.282 576.424 188.971C575.456 189.521 575.073 190.095 575.204 190.274Z" fill="#263238"/>
<path d="M603.617 197.449C603.509 198.136 603.674 198.838 604.076 199.406C604.478 199.973 605.086 200.361 605.77 200.487C606.101 200.562 606.445 200.57 606.78 200.51C607.114 200.451 607.434 200.325 607.719 200.14C608.004 199.955 608.25 199.715 608.441 199.433C608.632 199.152 608.764 198.835 608.831 198.502C608.939 197.816 608.774 197.116 608.372 196.55C607.969 195.985 607.362 195.599 606.679 195.476C606.348 195.399 606.005 195.389 605.67 195.447C605.335 195.506 605.016 195.63 604.73 195.814C604.444 195.998 604.199 196.238 604.008 196.519C603.816 196.8 603.684 197.116 603.617 197.449V197.449Z" fill="#263238"/>
<path d="M603.019 194.89C603.294 195.273 605.507 194.089 608.341 194.52C611.175 194.95 613.052 196.66 613.411 196.361C613.579 196.23 613.339 195.56 612.526 194.771C611.423 193.74 610.028 193.076 608.532 192.869C607.057 192.647 605.55 192.898 604.227 193.587C603.306 194.101 602.876 194.711 603.019 194.89Z" fill="#263238"/>
<path d="M589.638 214.43C589.638 214.263 587.952 213.701 585.154 212.923C584.436 212.744 583.778 212.493 583.731 211.979C583.78 211.225 584.055 210.504 584.52 209.91C585.469 208.26 586.453 206.526 587.474 204.708C591.599 197.282 594.649 191.147 594.397 190.98C594.146 190.813 590.511 196.696 586.385 204.134L583.515 209.372C582.936 210.185 582.657 211.174 582.726 212.17C582.8 212.434 582.931 212.679 583.111 212.886C583.291 213.092 583.515 213.257 583.766 213.366C584.149 213.53 584.551 213.646 584.962 213.713C586.485 214.145 588.056 214.386 589.638 214.43Z" fill="#263238"/>
<path d="M603.904 183.661C604.072 184.475 606.966 184.522 610.23 185.407C613.495 186.292 616.054 187.596 616.604 186.974C616.843 186.675 616.484 185.874 615.516 184.977C614.202 183.848 612.647 183.034 610.97 182.596C609.294 182.159 607.54 182.11 605.841 182.454C604.502 182.765 603.844 183.339 603.904 183.661Z" fill="#263238"/>
<path d="M577.453 182.215C577.859 182.932 579.844 182.549 582.236 182.86C584.628 183.171 586.517 183.937 587.019 183.327C587.27 183.028 587.019 182.334 586.278 181.593C585.216 180.69 583.91 180.125 582.526 179.967C581.142 179.809 579.742 180.067 578.505 180.708C577.644 181.246 577.273 181.868 577.453 182.215Z" fill="#263238"/>
<path d="M622.81 172.863L622.894 172.959C625.499 175.708 626.939 179.36 626.912 183.147V183.518C626.912 188.899 625.943 194.28 625.955 199.602C625.967 204.923 626.996 210.591 630.356 214.777C631.731 216.511 634.41 217.946 635.976 216.391C636.528 215.73 636.881 214.925 636.993 214.071C639.839 201.503 644.957 190.741 646.882 177.443C647.149 175.663 646.988 173.845 646.412 172.14C645.836 170.434 644.862 168.891 643.57 167.637C641.083 165.246 637.985 162.663 634.673 163.679C631.36 164.696 626.517 169.897 623.755 172.05" fill="#263238"/>
<path d="M632.437 203.488C632.772 203.393 645.674 201.587 643.414 214.155C641.154 226.723 629.064 221.868 629.064 221.497C629.064 221.127 632.437 203.488 632.437 203.488Z" fill="#B78876"/>
<path d="M633.752 217.432C633.752 217.432 633.943 217.623 634.278 217.85C634.761 218.169 635.348 218.289 635.917 218.185C637.328 217.934 638.822 216.032 639.289 213.772C639.529 212.706 639.529 211.599 639.289 210.532C639.239 210.118 639.091 209.723 638.855 209.379C638.62 209.036 638.305 208.754 637.937 208.559C637.698 208.446 637.426 208.421 637.17 208.489C636.914 208.557 636.691 208.713 636.538 208.929C636.311 209.24 636.347 209.515 636.275 209.515C636.204 209.515 636.048 209.264 636.275 208.762C636.399 208.464 636.624 208.219 636.909 208.068C637.301 207.868 637.756 207.83 638.177 207.961C638.677 208.16 639.119 208.485 639.458 208.903C639.797 209.322 640.023 209.821 640.114 210.352C640.446 211.52 640.491 212.751 640.245 213.94C639.707 216.463 637.985 218.592 636.084 218.795C635.728 218.833 635.368 218.79 635.03 218.67C634.693 218.55 634.387 218.355 634.135 218.101C633.716 217.731 633.704 217.444 633.752 217.432Z" fill="#AA6550"/>
<path d="M634.816 165.7C638.667 161.096 631.229 152.606 625.25 149.724C619.271 146.842 610.661 148.684 604.155 149.832C600.054 150.561 595.892 151.805 591.803 151.027C589.088 150.348 586.492 149.264 584.101 147.811C581.704 146.384 579.045 145.452 576.281 145.072C574.89 144.901 573.48 145.112 572.201 145.684C570.922 146.255 569.823 147.164 569.022 148.313C567.599 150.704 568.592 154.447 571.27 155.225C570.463 154.612 569.519 154.204 568.519 154.036C567.52 153.868 566.494 153.945 565.531 154.261C564.568 154.576 563.696 155.121 562.989 155.847C562.283 156.574 561.763 157.461 561.474 158.433C561.186 159.404 561.138 160.432 561.333 161.426C561.529 162.42 561.963 163.353 562.598 164.142C563.233 164.932 564.051 165.556 564.98 165.961C565.909 166.365 566.923 166.539 567.934 166.465C566.343 164.839 563.258 166.693 563.151 168.965C563.043 171.237 564.837 173.162 566.738 174.37C571.653 177.455 577.895 177.611 583.611 176.582C589.327 175.554 594.804 173.425 600.496 172.253C606.188 171.081 615.743 168.857 620.885 171.572C624.664 173.557 626.745 178.747 629.148 178.041C630.286 177.622 631.311 176.943 632.141 176.059C632.972 175.175 633.585 174.109 633.931 172.947C634.579 170.613 634.85 168.191 634.733 165.772" fill="#263238"/>
<path d="M659.415 223.997C659.65 223.943 659.873 223.845 660.072 223.71C660.664 223.33 661.136 222.791 661.435 222.155C661.899 221.138 662.041 220.003 661.842 218.902C661.532 217.455 660.739 216.157 659.594 215.219C658.235 214.101 656.705 213.208 655.062 212.577C653.215 211.903 651.44 211.045 649.764 210.017C648.008 208.784 646.669 207.044 645.926 205.031C645.109 202.863 644.731 200.554 644.814 198.239C644.933 193.455 646.26 188.971 646.583 184.75C646.906 180.528 646.368 176.57 644.574 173.832C643.226 171.629 641.087 170.025 638.595 169.347C637.927 169.179 637.238 169.111 636.55 169.144C636.311 169.148 636.074 169.184 635.845 169.252C636.752 169.246 637.657 169.358 638.535 169.587C640.905 170.336 642.914 171.932 644.18 174.071C645.842 176.726 646.416 180.576 645.997 184.702C645.579 188.827 644.299 193.312 644.156 198.227C644.08 200.627 644.486 203.018 645.352 205.258C646.152 207.385 647.583 209.217 649.453 210.508C651.17 211.538 652.984 212.396 654.87 213.067C656.47 213.66 657.967 214.499 659.307 215.554C660.4 216.418 661.174 217.622 661.507 218.974C661.725 220.004 661.625 221.076 661.22 222.047C660.851 222.879 660.215 223.565 659.415 223.997V223.997Z" fill="#455A64"/>
<path d="M570.864 154.926C570.696 154.8 570.51 154.699 570.314 154.627C570.09 154.517 569.858 154.425 569.62 154.352C569.289 154.238 568.949 154.154 568.603 154.101C567.469 153.922 566.309 154.003 565.211 154.339C564.113 154.674 563.106 155.255 562.266 156.038V156.038C561.414 157.075 560.777 158.27 560.391 159.555C560.005 160.84 559.878 162.189 560.017 163.524C560.178 165.181 560.669 166.79 561.462 168.254C562.255 169.719 563.333 171.009 564.633 172.05C567.622 174.458 571.261 175.919 575.085 176.247C579.237 176.604 583.419 176.351 587.498 175.494C593.965 174.227 600.158 171.831 605.794 168.415C608.21 166.92 610.736 165.613 613.351 164.504C615.633 163.579 618.065 163.08 620.526 163.033C624.108 162.956 627.652 163.778 630.834 165.425C631.984 166.069 633.098 166.775 634.171 167.542C633.213 166.601 632.131 165.796 630.954 165.15C627.764 163.372 624.166 162.454 620.514 162.483C617.992 162.503 615.496 162.985 613.148 163.906C610.505 165.014 607.951 166.321 605.507 167.817C599.91 171.162 593.777 173.513 587.378 174.765C583.359 175.616 579.239 175.877 575.145 175.542C571.438 175.234 567.905 173.836 564.992 171.524C563.739 170.533 562.696 169.303 561.924 167.905C561.152 166.506 560.666 164.968 560.496 163.38C560.35 162.108 560.456 160.819 560.809 159.588C561.162 158.357 561.755 157.207 562.553 156.205V156.205C563.35 155.444 564.306 154.87 565.353 154.525C566.4 154.179 567.51 154.071 568.603 154.208C569.377 154.378 570.134 154.618 570.864 154.926V154.926Z" fill="#455A64"/>
<path d="M577.859 144.462C577.816 145.423 577.967 146.383 578.302 147.284C579.235 149.776 580.978 151.882 583.252 153.264C584.78 154.259 586.479 154.964 588.263 155.344C590.309 155.756 592.404 155.865 594.481 155.667C598.87 155.344 603.462 153.838 608.281 152.594C613.1 151.35 617.919 150.693 622.081 151.805C625.775 152.783 629.059 154.916 631.456 157.891C633.105 159.868 634.326 162.164 635.044 164.636C635.522 166.394 635.582 167.422 635.665 167.41C635.682 167.163 635.682 166.916 635.665 166.669C635.6 165.964 635.484 165.264 635.319 164.576C634.681 162.026 633.493 159.647 631.839 157.604C629.418 154.507 626.063 152.271 622.272 151.231C617.967 150.035 613.017 150.716 608.173 151.972C603.33 153.228 598.774 154.734 594.481 155.081C592.459 155.29 590.417 155.206 588.418 154.83C586.69 154.478 585.038 153.822 583.539 152.893C581.322 151.585 579.586 149.598 578.589 147.225C578.269 146.326 578.024 145.402 577.859 144.462V144.462Z" fill="#455A64"/>
<path d="M583.97 223.817C584.127 225.052 584.453 226.259 584.938 227.405C585.192 227.971 585.563 228.477 586.027 228.889C586.491 229.301 587.037 229.611 587.629 229.796C588.27 229.929 588.935 229.899 589.561 229.709C590.188 229.519 590.757 229.175 591.217 228.708C592.133 227.742 592.723 226.512 592.903 225.193C593.094 223.997 592.903 222.502 591.707 222.119C591.224 222 590.719 222 590.236 222.119L583.611 223.315" fill="#AA6550"/>
<path d="M585.13 228.84C586.183 229.245 587.302 229.456 588.43 229.462C589.599 229.393 590.699 228.89 591.516 228.051C591.998 227.537 592.365 226.928 592.594 226.262C592.823 225.596 592.908 224.889 592.843 224.188C592.807 223.829 592.727 223.475 592.604 223.136C592.448 222.813 592.496 222.837 592.221 222.801C591.946 222.765 591.516 222.801 591.157 222.861L590.045 222.944C588.61 223.052 587.318 223.136 586.23 223.195C585.038 223.361 583.827 223.337 582.642 223.124C583.761 222.716 584.934 222.474 586.122 222.406C587.199 222.251 588.514 222.095 589.913 221.928L591.013 221.808C591.41 221.75 591.809 221.714 592.209 221.701C592.526 221.709 592.831 221.818 593.082 222.012C593.305 222.209 593.474 222.46 593.572 222.741C593.735 223.172 593.839 223.622 593.883 224.08C593.962 224.941 593.849 225.809 593.554 226.621C593.258 227.434 592.787 228.171 592.173 228.78C591.153 229.751 589.79 230.279 588.382 230.251C587.463 230.255 586.56 230.002 585.776 229.521C585.369 229.187 585.094 228.888 585.13 228.84Z" fill="#263238"/>
<path d="M579.199 248.272C579.199 248.272 591.252 252.84 602.983 249.468C602.983 249.468 594.134 256.894 577.991 254.048L579.199 248.272Z" fill="#AA6550"/>
<path d="M597.59 419.718C597.009 419.337 596.458 418.913 595.94 418.45C595.426 418.031 594.744 417.517 594.015 416.967C593.285 416.417 592.4 415.771 591.384 415.114C590.368 414.456 589.315 413.738 588.084 413.057C586.852 412.375 585.548 411.658 584.149 410.94C578.014 407.921 571.418 405.949 564.633 405.105C563.067 404.937 561.584 404.746 560.185 404.71C558.786 404.674 557.482 404.614 556.298 404.626C555.115 404.638 554.026 404.698 553.082 404.734C552.137 404.77 551.324 404.842 550.69 404.913C550.006 405.018 549.314 405.066 548.621 405.057C549.294 404.884 549.977 404.756 550.666 404.674C551.458 404.538 552.256 404.443 553.058 404.387C554.002 404.315 555.079 404.184 556.286 404.184C557.494 404.184 558.798 404.112 560.209 404.184C561.62 404.256 563.127 404.375 564.705 404.519C568.127 404.944 571.51 405.64 574.822 406.599C578.109 407.609 581.308 408.885 584.388 410.414C585.788 411.156 587.139 411.837 588.323 412.602C589.507 413.368 590.631 414.049 591.611 414.743C592.592 415.437 593.453 416.106 594.206 416.68C594.96 417.254 595.581 417.804 596.072 418.259C596.618 418.702 597.126 419.19 597.59 419.718Z" fill="#FAFAFA"/>
<path d="M527.312 358.3L537.117 315.812C540.872 299.836 545.321 284.482 552.795 282.664V287.603L549.59 408.991C549.59 408.991 529.607 431.712 504.148 419.108C496.184 415.15 481.655 387.347 481.655 387.347C481.655 387.347 447.849 327.029 449.26 324.291C450.671 321.552 471.323 294.933 473.428 293.606L527.312 358.3Z" fill="#4D55CB"/>
<path d="M628.215 270.634C647.707 274.365 669.651 285.737 679.756 314.88C683.439 325.522 710.273 403.981 710.273 403.981L664.509 403.024L657.119 386.868L660.706 413.117L663.803 450.546L548.239 452.495L549.052 396.1L550.164 283.932C550.164 283.932 551.455 282.233 571.39 271.244C583.755 264.416 628.215 270.634 628.215 270.634Z" fill="#4D55CB"/>
<g opacity="0.2">
<path opacity="0.2" d="M639.743 345.66C641.644 369.337 643.821 376.656 645.722 400.333C645.768 402.575 646.171 404.796 646.918 406.91C647.317 407.962 647.958 408.905 648.789 409.663C649.62 410.421 650.618 410.973 651.701 411.275C655.074 411.957 659.45 414.396 660.395 411.096L657.202 388.291C656.516 384.974 655.457 381.745 654.045 378.665C646.954 362.916 644.335 361.995 639.695 345.66" fill="black"/>
</g>
<path d="M571.378 283.381L571.76 280.918L575.456 257.289C575.562 256.602 575.925 255.981 576.47 255.55C577.016 255.12 577.705 254.912 578.397 254.969L623.898 258.771C625.273 258.884 626.547 259.536 627.443 260.584C628.339 261.633 628.784 262.993 628.682 264.368L627.665 278.096L613.459 296.631L592.998 299.824" fill="#4D55CB"/>
<path d="M548.526 327.806C548.705 327.806 548.836 346.318 548.836 369.146C548.836 391.974 548.705 410.486 548.526 410.486C548.346 410.486 548.215 391.974 548.215 369.146C548.215 346.318 548.358 327.806 548.526 327.806Z" fill="#263238"/>
<path d="M665.489 406.827C665.489 406.827 665.489 406.743 665.346 406.564C665.202 406.384 665.119 406.085 664.963 405.75L663.576 402.605L658.589 390.994L642.338 352.596C639.181 345.086 636.18 337.935 633.453 331.418C632.075 328.365 631.087 325.151 630.511 321.851C630.007 318.968 629.743 316.048 629.722 313.122C629.57 308.881 630.186 304.647 631.54 300.625L631.911 299.633L632.329 298.796C632.526 298.35 632.766 297.926 633.047 297.528L633.549 296.787C633.607 296.702 633.671 296.622 633.74 296.548C632.954 297.87 632.293 299.263 631.767 300.709C630.516 304.722 629.973 308.922 630.165 313.122C630.185 319.358 631.483 325.524 633.979 331.238L642.912 352.393L658.996 390.862L663.779 402.546L665.059 405.738L665.382 406.575C665.425 406.656 665.462 406.74 665.489 406.827V406.827Z" fill="#263238"/>
<path d="M642.398 274.807C641.98 275.232 641.536 275.631 641.071 276.003C639.726 277.028 638.26 277.884 636.706 278.55C634.244 279.578 631.666 280.3 629.029 280.703C625.543 281.244 622.03 281.592 618.505 281.743C614.583 281.911 610.302 281.839 605.71 281.923C600.832 281.914 595.972 282.509 591.24 283.692C585.998 284.931 581.254 287.729 577.632 291.716C575.828 293.888 574.536 296.439 573.853 299.178C573.123 301.988 573.173 304.944 573.997 307.728C574.454 309.102 575.128 310.394 575.994 311.555C576.865 312.682 577.966 313.611 579.222 314.282C580.442 314.949 581.832 315.241 583.216 315.119C584.571 314.98 585.825 314.34 586.732 313.325C587.541 312.257 588.116 311.032 588.421 309.728C588.725 308.424 588.753 307.071 588.502 305.755C588.303 304.456 587.9 303.197 587.306 302.024C586.716 300.88 586.007 299.802 585.19 298.808C581.993 295.124 577.688 292.577 572.92 291.549C568.79 290.574 564.483 290.624 560.376 291.692C556.998 292.566 553.772 293.949 550.81 295.794C548.554 297.201 546.425 298.801 544.448 300.577C542.809 302.012 541.65 303.256 540.86 304.069L539.975 305.026C539.879 305.14 539.77 305.244 539.652 305.337C541.06 303.558 542.621 301.905 544.316 300.398C546.274 298.587 548.396 296.962 550.654 295.543C553.645 293.64 556.912 292.212 560.34 291.31C564.515 290.19 568.902 290.116 573.112 291.094C578.003 292.126 582.424 294.725 585.704 298.497C586.539 299.494 587.269 300.577 587.88 301.725C588.483 302.957 588.887 304.277 589.076 305.636C589.285 307.021 589.261 308.432 589.004 309.809C588.747 311.243 588.116 312.583 587.175 313.696C586.169 314.824 584.779 315.536 583.276 315.693C581.768 315.836 580.252 315.524 578.923 314.796C577.589 314.083 576.419 313.097 575.491 311.902C574.579 310.684 573.868 309.328 573.387 307.884C572.527 304.991 572.478 301.918 573.243 298.999C573.941 296.163 575.279 293.525 577.154 291.286C580.863 287.217 585.715 284.362 591.073 283.094C595.859 281.925 600.771 281.354 605.698 281.396C610.302 281.325 614.583 281.396 618.481 281.289C621.992 281.166 625.493 280.851 628.969 280.344C631.591 279.968 634.159 279.285 636.622 278.311C638.167 277.684 639.636 276.881 640.999 275.919C641.477 275.597 641.8 275.298 642.039 275.13C642.148 275.011 642.268 274.903 642.398 274.807V274.807Z" fill="#FAFAFA"/>
<path d="M681.944 324.578C681.776 324.625 681.604 324.653 681.43 324.661C681.095 324.661 680.605 324.745 679.959 324.769C678.152 324.829 676.344 324.785 674.542 324.637C672.258 324.47 669.555 324.123 666.566 323.705C663.576 323.286 660.3 322.844 656.832 322.664C653.589 322.488 650.337 322.733 647.157 323.394C644.558 323.922 642.061 324.872 639.767 326.204C637.689 327.475 635.845 329.092 634.314 330.987C634.379 330.827 634.468 330.678 634.577 330.545C634.83 330.122 635.118 329.722 635.438 329.349C636.597 327.934 637.983 326.721 639.54 325.762C641.849 324.351 644.38 323.34 647.026 322.772C650.256 322.067 653.566 321.801 656.867 321.983C660.371 322.162 663.66 322.64 666.649 323.083C669.639 323.525 672.318 323.92 674.578 324.135C676.838 324.35 678.691 324.446 679.959 324.458C680.622 324.457 681.285 324.497 681.944 324.578V324.578Z" fill="#FAFAFA"/>
<path d="M653.208 378.187C650.96 377.664 648.648 377.466 646.344 377.601C643.642 377.783 640.967 378.261 638.368 379.024C635.319 379.849 631.91 381.057 628.084 382.24C623.929 383.649 619.58 384.404 615.193 384.477C610.141 384.475 605.143 383.438 600.508 381.427C595.358 379.25 590.775 375.92 587.115 371.693C585.134 369.484 583.52 366.973 582.332 364.255C581.067 361.442 580.592 358.337 580.956 355.275C581.373 352.187 582.878 349.35 585.201 347.274C586.355 346.268 587.739 345.562 589.231 345.218C590.691 344.909 592.203 344.95 593.644 345.339C595.085 345.728 596.412 346.452 597.518 347.454C598.599 348.444 599.35 349.742 599.671 351.173C599.98 352.573 599.868 354.034 599.348 355.37C598.845 356.655 598.084 357.823 597.112 358.802C595.257 360.66 593.016 362.085 590.547 362.976C589.384 363.417 588.183 363.749 586.959 363.968C586.361 364.076 585.764 364.207 585.178 364.291L583.396 364.506C579.026 364.939 574.615 364.628 570.349 363.586C566.832 362.748 563.442 361.445 560.269 359.711C557.869 358.415 555.619 356.859 553.56 355.071L552.364 354.031L551.384 353.038C550.855 352.537 550.359 352.002 549.901 351.436L549.04 350.408C548.941 350.296 548.853 350.176 548.777 350.049C548.892 350.148 549 350.256 549.1 350.372L549.996 351.352C550.47 351.901 550.978 352.42 551.515 352.907L552.508 353.875L553.703 354.892C555.772 356.63 558.021 358.142 560.412 359.4C563.569 361.087 566.934 362.349 570.421 363.155C574.644 364.161 579.007 364.444 583.324 363.992L585.07 363.777C585.656 363.681 586.266 363.55 586.84 363.442C588.036 363.226 589.209 362.898 590.344 362.461C592.731 361.592 594.899 360.208 596.693 358.408C597.608 357.482 598.324 356.379 598.798 355.167C599.267 353.935 599.371 352.594 599.097 351.304C598.742 349.987 598.035 348.792 597.051 347.848C596.066 346.904 594.843 346.247 593.512 345.947C592.15 345.554 590.71 345.513 589.327 345.829C587.944 346.145 586.665 346.807 585.608 347.753C583.394 349.726 581.964 352.43 581.578 355.37C581.235 358.318 581.69 361.304 582.894 364.016C584.051 366.671 585.616 369.128 587.533 371.299C591.132 375.448 595.631 378.72 600.687 380.865C605.249 382.856 610.168 383.898 615.145 383.927C619.488 383.873 623.796 383.147 627.916 381.774C631.731 380.578 635.091 379.454 638.236 378.653C640.862 377.915 643.561 377.47 646.284 377.326C647.276 377.264 648.27 377.264 649.262 377.326C650.111 377.457 650.84 377.517 651.414 377.648L652.718 377.971C652.89 378.02 653.055 378.092 653.208 378.187V378.187Z" fill="#FAFAFA"/>
<path d="M548.131 365.427C548.023 365.427 547.473 364.231 546.313 362.222C543.278 357.124 538.851 352.996 533.554 350.324C531.521 349.295 530.182 348.841 530.217 348.733C530.553 348.763 530.883 348.839 531.198 348.961C532.068 349.22 532.919 349.539 533.745 349.917C536.485 351.167 539.005 352.85 541.207 354.904C543.413 356.955 545.268 359.355 546.696 362.007C547.148 362.801 547.548 363.624 547.892 364.47C548.014 364.777 548.094 365.099 548.131 365.427V365.427Z" fill="#FAFAFA"/>
<path d="M501.733 416.608C501.733 416.608 501.649 416.513 501.541 416.31C501.434 416.106 501.254 415.783 501.051 415.413C500.621 414.623 499.999 413.44 499.233 411.909C497.012 407.588 495.179 403.078 493.757 398.432C492.806 395.205 492.232 391.878 492.047 388.519C491.951 386.642 492.027 384.761 492.274 382.898C492.571 380.927 493.043 378.986 493.685 377.098C495.081 373.018 497.497 369.362 500.704 366.479C502.417 364.908 504.431 363.7 506.624 362.929C508.818 362.158 511.144 361.841 513.464 361.995C515.874 362.175 518.125 363.271 519.754 365.056C520.529 365.939 521.092 366.988 521.401 368.121C521.709 369.255 521.756 370.444 521.536 371.598C521.277 372.73 520.686 373.758 519.838 374.551C519.008 375.31 518.007 375.856 516.92 376.142C514.815 376.69 512.58 376.42 510.666 375.388C508.889 374.43 507.336 373.105 506.109 371.502C504.933 370.017 503.964 368.38 503.228 366.635C501.933 363.504 501.397 360.111 501.661 356.733C501.903 353.946 502.717 351.239 504.053 348.781C505.043 346.927 506.309 345.233 507.808 343.759C508.745 342.824 509.774 341.986 510.881 341.259C511.252 341.008 511.562 340.853 511.766 340.733L512.077 340.578C512.077 340.578 511.694 340.853 510.953 341.367C509.885 342.129 508.888 342.985 507.975 343.926C506.542 345.413 505.334 347.101 504.387 348.937C503.117 351.364 502.356 354.025 502.151 356.757C501.92 360.069 502.477 363.389 503.778 366.444C504.504 368.137 505.453 369.725 506.6 371.167C507.789 372.702 509.289 373.969 511 374.886C512.788 375.848 514.873 376.096 516.836 375.58C517.843 375.344 518.765 374.836 519.501 374.11C520.238 373.384 520.759 372.469 521.009 371.466C521.199 370.409 521.149 369.324 520.864 368.289C520.578 367.254 520.064 366.297 519.359 365.487C517.833 363.822 515.728 362.804 513.476 362.641C511.241 362.493 509 362.8 506.888 363.542C504.775 364.284 502.834 365.446 501.183 366.958C498.052 369.773 495.687 373.336 494.307 377.314C493.662 379.16 493.185 381.061 492.884 382.994C492.635 384.824 492.551 386.673 492.633 388.519C492.8 391.842 493.346 395.136 494.259 398.336C495.637 402.97 497.397 407.482 499.52 411.825L501.231 415.413C501.41 415.795 501.553 416.106 501.673 416.345C501.793 416.585 501.733 416.608 501.733 416.608Z" fill="#FAFAFA"/>
<path d="M486.964 311.041C486.964 311.041 487.024 311.208 487.072 311.531C487.156 312.014 487.216 312.501 487.251 312.99C487.409 314.776 487.409 316.573 487.251 318.359C486.768 324.307 484.734 330.024 481.351 334.941C477.969 339.857 473.357 343.8 467.975 346.378C466.364 347.164 464.687 347.808 462.964 348.303C462.366 348.494 461.876 348.578 461.553 348.662C461.23 348.745 461.051 348.757 461.051 348.733C461.65 348.475 462.265 348.255 462.892 348.076C464.57 347.494 466.204 346.795 467.783 345.983C473.022 343.337 477.511 339.415 480.838 334.58C484.165 329.745 486.222 324.15 486.821 318.312C487.009 316.548 487.077 314.774 487.024 313.002C486.962 312.35 486.942 311.695 486.964 311.041V311.041Z" fill="#FAFAFA"/>
<path d="M692.407 362.892C690.629 364.007 689.065 365.432 687.792 367.101C686.596 368.644 685.4 370.689 684.049 372.841C682.567 375.251 680.857 377.514 678.942 379.598C675.442 383.38 671.29 386.503 666.685 388.817C665.299 389.519 663.869 390.13 662.404 390.647C661.87 390.857 661.317 391.017 660.754 391.125C661.249 390.842 661.77 390.606 662.309 390.42C663.313 389.977 664.772 389.356 666.482 388.423C670.95 386.021 674.991 382.898 678.44 379.179C680.335 377.128 682.036 374.906 683.522 372.542C684.711 370.567 686.009 368.658 687.409 366.826C688.382 365.598 689.54 364.529 690.841 363.657C691.194 363.423 691.566 363.219 691.953 363.047C692.264 362.928 692.407 362.868 692.407 362.892Z" fill="#FAFAFA"/>
<path d="M627.785 272.069C627.61 272.144 627.424 272.192 627.235 272.212L625.644 272.499C624.257 272.727 622.248 273.026 619.773 273.36C614.798 274.03 607.91 274.819 600.269 275.381C596.691 275.708 593.098 275.836 589.507 275.764C586.544 275.692 583.607 275.188 580.789 274.269C578.887 273.653 577.092 272.745 575.468 271.579C575.024 271.266 574.601 270.927 574.2 270.562C573.937 270.299 573.805 270.168 573.817 270.144C573.829 270.12 574.439 270.622 575.599 271.339C577.251 272.401 579.042 273.23 580.921 273.803C583.713 274.653 586.612 275.104 589.53 275.142C593.123 275.18 596.715 275.037 600.293 274.712C607.91 274.15 614.798 273.444 619.773 272.882L625.668 272.212C626.37 272.115 627.077 272.067 627.785 272.069V272.069Z" fill="#263238"/>
<path d="M709.735 412.447C710.635 417.073 710.506 421.841 709.358 426.412C708.21 430.983 706.07 435.245 703.09 438.897C700.111 442.548 696.364 445.5 692.117 447.542C687.869 449.584 683.225 450.667 678.512 450.713L587.928 449.709L590.32 420.375L667.881 408.728" fill="#B78876"/>
<path d="M595.868 421.655C595.45 421.786 590.224 419.443 585.536 417.278C580.564 414.974 575.105 413.916 569.632 414.193L548.035 415.293C548.035 415.293 549.363 418.881 551.623 420.076C553.883 421.272 567.432 421.655 567.432 421.655L566.738 422.36C563.905 425.278 560.041 426.97 555.976 427.072H553.907C552.375 426.951 550.862 426.654 549.399 426.187L544.077 424.035C542.463 423.317 540.765 423.425 540.059 425.051C539.354 426.677 539.892 428.543 544.292 430.755C546.744 431.951 555.856 435.144 555.856 435.144C555.918 436.441 556.099 437.73 556.394 438.994C556.789 440.322 560.364 441.649 560.364 441.649C561.293 443.617 562.356 445.519 563.545 447.341C563.964 447.82 567.204 448.836 570.66 449.805C576.232 451.364 582.13 451.318 587.677 449.673L595.904 447.21V422.097" fill="#B78876"/>
<path d="M566.331 438.05C562.526 437.953 558.796 436.97 555.437 435.18C555.437 435.036 557.829 435.945 560.854 436.722C563.88 437.5 566.343 437.87 566.331 438.05Z" fill="#AA6550"/>
<path d="M565.566 443.084C564.552 443.294 563.5 443.216 562.529 442.857C561.514 442.67 560.571 442.206 559.802 441.518C560.78 441.713 561.74 441.989 562.672 442.343C563.654 442.515 564.622 442.763 565.566 443.084V443.084Z" fill="#AA6550"/>
<path d="M569.512 419.706C569.04 420.371 568.481 420.97 567.85 421.487C566.418 422.855 564.838 424.058 563.139 425.075C561.426 426.074 559.565 426.793 557.626 427.204C556.847 427.412 556.04 427.501 555.234 427.467C557.907 426.852 560.488 425.892 562.911 424.609C564.573 423.607 566.152 422.475 567.635 421.224C568.214 420.664 568.843 420.155 569.512 419.706Z" fill="#AA6550"/>
<path d="M598.069 417.721L595.868 450.893H681.19C686.984 450.897 692.668 449.322 697.633 446.337V446.337C703.252 442.96 707.695 437.934 710.357 431.943C713.018 425.952 713.77 419.287 712.509 412.854C711.282 406.554 709.439 400.39 707.008 394.45L664.102 401.517L665.477 406.851L598.069 417.721Z" fill="#4D55CB"/>
<path d="M685.244 404.064C684.962 404.146 684.674 404.21 684.383 404.256L681.884 404.71L672.664 406.241L642.338 411.024L611.976 415.676L602.768 417.015L600.257 417.35C599.964 417.391 599.668 417.415 599.372 417.422C599.655 417.323 599.948 417.255 600.245 417.218L602.732 416.776L611.916 415.233L642.242 410.45L672.664 405.762L681.872 404.423L684.383 404.088C684.669 404.05 684.957 404.042 685.244 404.064V404.064Z" fill="#263238"/>
<path d="M641.573 450.917C641.417 450.917 642.087 448.525 642.171 444.615C642.189 443.553 642.145 442.491 642.039 441.434C641.936 440.228 641.761 439.03 641.513 437.846C640.921 435.118 639.989 432.474 638.739 429.978C637.459 427.493 635.893 425.165 634.075 423.042L632.879 421.643C632.472 421.188 632.03 420.794 631.623 420.387C630.822 419.562 629.973 418.904 629.232 418.271C626.182 415.879 624.018 414.683 624.09 414.576C624.619 414.787 625.127 415.047 625.608 415.353C626.204 415.663 626.779 416.011 627.33 416.393C627.964 416.848 628.753 417.29 629.507 417.936C630.368 418.581 631.19 419.275 631.97 420.017C632.389 420.423 632.855 420.806 633.274 421.212L634.577 422.623C636.45 424.761 638.056 427.118 639.36 429.643C640.627 432.191 641.559 434.892 642.135 437.679C642.38 438.898 642.54 440.133 642.613 441.374C642.69 442.449 642.69 443.528 642.613 444.603C642.59 445.496 642.51 446.387 642.374 447.269C642.308 447.935 642.192 448.595 642.027 449.243C641.924 449.813 641.772 450.373 641.573 450.917V450.917Z" fill="#FAFAFA"/>
<path d="M693.52 448.417C692.187 448.41 690.859 448.253 689.561 447.951C688.031 447.6 686.547 447.075 685.137 446.385C683.267 445.455 681.579 444.2 680.15 442.677C678.417 440.811 677.158 438.555 676.479 436.1C676.101 434.736 675.888 433.331 675.845 431.915C675.759 430.419 675.879 428.918 676.204 427.455C676.524 425.897 677.123 424.41 677.974 423.066C678.861 421.641 680.095 420.464 681.561 419.646C683.077 418.762 684.82 418.346 686.572 418.45C687.472 418.512 688.351 418.756 689.154 419.167C689.958 419.578 690.67 420.148 691.247 420.842C691.845 421.526 692.294 422.326 692.566 423.193C692.837 424.06 692.926 424.973 692.826 425.876C692.679 426.752 692.339 427.585 691.83 428.313C691.321 429.041 690.656 429.646 689.884 430.085C686.99 431.601 683.657 432.058 680.461 431.377C675.925 430.67 671.779 428.399 668.741 424.957C665.703 421.515 663.965 417.119 663.827 412.531C663.751 411.198 663.863 409.861 664.162 408.561C664.052 409.877 664.02 411.199 664.066 412.519C664.289 416.118 665.465 419.593 667.474 422.588C668.971 424.786 670.902 426.655 673.148 428.08C675.393 429.505 677.906 430.456 680.533 430.875C683.586 431.531 686.773 431.108 689.549 429.679C690.243 429.287 690.841 428.745 691.3 428.094C691.759 427.443 692.068 426.697 692.204 425.912C692.275 425.094 692.183 424.269 691.934 423.486C691.685 422.703 691.285 421.977 690.755 421.35C690.225 420.722 689.576 420.205 688.846 419.829C688.116 419.452 687.319 419.223 686.5 419.156C684.879 419.045 683.26 419.415 681.848 420.22C680.52 421.014 679.378 422.085 678.501 423.36C677.624 424.636 677.032 426.085 676.766 427.61C676.442 429.029 676.317 430.486 676.395 431.939C676.428 433.309 676.625 434.67 676.981 435.993C677.612 438.383 678.81 440.586 680.473 442.414C681.84 443.915 683.459 445.165 685.256 446.109C686.635 446.813 688.086 447.363 689.585 447.748C692.097 448.31 693.531 448.334 693.52 448.417Z" fill="#FAFAFA"/>
<path d="M355.065 87.0387H141.382C128.893 87.0387 116.915 92.0001 108.084 100.831C99.2522 109.663 94.2908 121.641 94.2908 134.13V210.281H48.1917L94.2908 256.38V308.147C94.2908 320.636 99.2522 332.614 108.084 341.446C116.915 350.277 128.893 355.239 141.382 355.239H355.065C367.554 355.239 379.532 350.277 388.363 341.446C397.195 332.614 402.156 320.636 402.156 308.147V134.13C402.156 121.641 397.195 109.663 388.363 100.831C379.532 92.0001 367.554 87.0387 355.065 87.0387V87.0387Z" fill="#4D55CB"/>
<path d="M267.769 95.0866C266.418 98.5903 268.738 102.405 271.357 105.108C273.976 107.81 277.109 110.369 277.934 114.028C278.616 117.102 277.479 120.295 277.755 123.428C278.03 126.561 279.764 129.514 280.744 132.576C282.526 138.124 281.808 144.187 280.218 149.796C279.071 154.456 276.879 158.795 273.808 162.483C272.262 164.31 270.345 165.788 268.184 166.819C266.024 167.849 263.669 168.41 261.276 168.462C260.599 168.505 259.921 168.408 259.283 168.178C258.646 167.947 258.062 167.588 257.569 167.123C256.898 166.156 256.528 165.012 256.505 163.835C253.766 139.757 253.766 115.446 256.505 91.3676" fill="#263238"/>
<path d="M265.246 172.684C275.65 172.229 285.264 182.191 284.439 192.57C294.974 195.141 302.377 206.729 300.356 217.372C299.674 220.888 298.107 224.236 297.892 227.799C297.653 231.698 299.088 235.489 299.794 239.315C301.147 246.29 300.424 253.508 297.713 260.075C296.075 264.033 293.013 268.123 288.732 268.242C287.282 268.181 285.869 267.764 284.617 267.028C283.366 266.292 282.315 265.259 281.557 264.021C280.067 261.514 279.083 258.739 278.663 255.854C276.81 246.502 276.272 236.9 273.689 227.728C271.106 218.556 266.083 209.515 257.796 204.863C253.216 202.28 247.715 201.061 244.068 197.27C242.233 195.201 241.01 192.663 240.535 189.938C240.06 187.214 240.351 184.412 241.377 181.844C242.452 179.299 244.052 177.009 246.071 175.124C248.09 173.239 250.484 171.8 253.097 170.902" fill="#263238"/>
<path d="M193.233 103.661C193.114 99.2122 197.216 95.7802 201.353 94.094C205.491 92.4079 210.095 91.8459 213.778 89.3107C217.054 87.1104 219.243 83.6784 222.005 80.9399C225.416 77.4809 229.686 74.9919 234.377 73.7285C239.068 72.4652 244.011 72.4731 248.697 73.7513C253.384 75.0296 257.647 77.5321 261.047 81.002C264.447 84.472 266.862 88.7842 268.044 93.4961C269.635 99.8221 268.547 107.308 263.56 111.517C257.772 116.396 249.21 115.308 241.76 113.789C234.31 112.271 225.939 110.776 219.745 115.141C216.014 117.759 213.861 122.041 211.577 125.999C209.293 129.957 206.435 133.987 202.118 135.482C197.802 136.976 191.93 134.393 191.763 129.837" fill="#263238"/>
<path d="M210.764 104.569C208.913 104.77 207.204 105.657 205.975 107.056C204.746 108.456 204.087 110.265 204.127 112.127V112.127L208.564 212.577C208.755 224.439 226.095 231.1 238.794 230.801C251.626 230.502 252.032 224.212 252.2 212.923C252.463 194.077 252.439 186.998 252.451 187.105C252.463 187.213 268.654 184.379 271.967 163.189C273.605 152.678 273.043 135.434 272.122 121.335C271.297 108.647 262.854 93.1015 250.215 94.4647L210.764 104.569Z" fill="#FFBE9D"/>
<path d="M268.475 134.656C268.482 135.362 268.213 136.043 267.727 136.554C267.24 137.065 266.573 137.367 265.868 137.395C265.527 137.424 265.183 137.386 264.857 137.281C264.531 137.176 264.228 137.008 263.968 136.785C263.708 136.562 263.494 136.29 263.34 135.984C263.186 135.678 263.094 135.345 263.07 135.003C263.06 134.297 263.327 133.614 263.815 133.102C264.302 132.59 264.97 132.29 265.677 132.265C266.018 132.235 266.362 132.274 266.688 132.379C267.014 132.484 267.316 132.652 267.576 132.875C267.837 133.097 268.05 133.369 268.205 133.675C268.359 133.981 268.451 134.315 268.475 134.656V134.656Z" fill="#263238"/>
<path d="M268.403 130.351C268.068 130.71 266.011 129.156 263.094 129.156C260.176 129.156 258.035 130.639 257.712 130.28C257.557 130.124 257.904 129.479 258.836 128.797C260.095 127.92 261.596 127.456 263.13 127.47C264.648 127.461 266.13 127.934 267.363 128.821C268.26 129.526 268.571 130.196 268.403 130.351Z" fill="#263238"/>
<path d="M240.433 134.656C240.44 135.362 240.171 136.043 239.684 136.554C239.198 137.065 238.531 137.367 237.826 137.395C237.485 137.424 237.141 137.386 236.815 137.281C236.488 137.176 236.186 137.008 235.926 136.785C235.666 136.562 235.452 136.29 235.298 135.984C235.144 135.678 235.052 135.345 235.028 135.003C235.018 134.297 235.285 133.614 235.772 133.102C236.26 132.59 236.928 132.29 237.635 132.265C237.976 132.235 238.32 132.274 238.646 132.379C238.972 132.484 239.274 132.652 239.534 132.875C239.795 133.097 240.008 133.369 240.163 133.675C240.317 133.981 240.409 134.315 240.433 134.656V134.656Z" fill="#263238"/>
<path d="M239.775 130.961C239.44 131.32 237.383 129.766 234.466 129.766C231.548 129.766 229.407 131.248 229.096 130.89C228.941 130.734 229.276 130.088 230.208 129.407C231.467 128.528 232.967 128.06 234.501 128.067C236.021 128.062 237.504 128.539 238.735 129.431C239.572 130.16 239.883 130.806 239.775 130.961Z" fill="#263238"/>
<path d="M250.358 152.582C250.358 152.414 252.152 152.104 255.141 151.721C255.883 151.637 256.588 151.482 256.72 150.98C256.775 150.209 256.6 149.439 256.218 148.767L253.993 143.099C250.92 135.027 248.684 128.39 249.019 128.271C249.354 128.151 252.104 134.597 255.177 142.621L257.306 148.325C257.769 149.223 257.909 150.254 257.701 151.243C257.596 151.503 257.434 151.737 257.227 151.928C257.02 152.118 256.773 152.26 256.505 152.343C256.115 152.45 255.713 152.506 255.309 152.51C252.2 152.725 250.37 152.749 250.358 152.582Z" fill="#263238"/>
<path d="M252.451 187.117C242.492 187.289 232.681 184.694 224.11 179.62C224.11 179.62 231.01 194.137 252.176 192.104L252.451 187.117Z" fill="#EB996E"/>
<path d="M249.138 159.613C248.575 158.906 247.839 158.356 247.001 158.016C246.163 157.677 245.252 157.56 244.355 157.676C243.711 157.734 243.086 157.922 242.516 158.228C241.947 158.534 241.446 158.952 241.043 159.458C240.654 159.946 240.424 160.541 240.386 161.164C240.347 161.786 240.502 162.406 240.827 162.938C241.295 163.463 241.911 163.835 242.593 164.006C243.276 164.176 243.994 164.138 244.654 163.894C246.031 163.405 247.295 162.645 248.373 161.658C248.704 161.427 248.988 161.135 249.21 160.797C249.319 160.637 249.377 160.447 249.377 160.253C249.377 160.059 249.319 159.87 249.21 159.709" fill="#EB996E"/>
<path d="M241.772 154.639C242.25 154.639 242.262 157.784 244.977 160.02C247.691 162.256 251.064 161.909 251.088 162.412C251.088 162.615 250.334 163.033 248.911 163.069C247.055 163.103 245.247 162.481 243.805 161.311C242.425 160.183 241.538 158.562 241.33 156.791C241.198 155.392 241.557 154.639 241.772 154.639Z" fill="#263238"/>
<path d="M240.971 125.843C240.684 126.644 237.766 126.274 234.346 126.692C230.926 127.111 228.152 128.056 227.697 127.338C227.494 127.003 227.972 126.25 229.084 125.484C230.569 124.53 232.252 123.926 234.005 123.719C235.758 123.512 237.535 123.707 239.201 124.289C240.504 124.851 241.138 125.473 240.971 125.843Z" fill="#263238"/>
<path d="M267.279 121.909C266.765 122.567 264.756 121.909 262.328 121.909C259.901 121.909 257.868 122.363 257.402 121.67C257.186 121.335 257.509 120.677 258.406 120.043C259.606 119.293 261.001 118.914 262.416 118.954C263.832 118.994 265.203 119.453 266.358 120.271C267.279 120.904 267.53 121.586 267.279 121.909Z" fill="#263238"/>
<path d="M195.996 174.143C198.912 174.732 201.926 174.62 204.79 173.815C207.653 173.011 210.285 171.536 212.467 169.514C214.649 167.492 216.319 164.981 217.339 162.186C218.359 159.392 218.7 156.395 218.334 153.443C217.676 148.241 214.878 142.967 216.684 138.041C219.075 131.547 228.176 129.55 230.591 123.057C231.99 119.29 230.735 114.878 232.325 111.182C233.82 107.715 237.479 105.717 241.043 104.426C244.606 103.134 248.409 102.25 251.398 99.9297C254.388 97.6098 256.242 93.233 254.316 89.9684C238.523 91.8634 223.011 95.6328 208.11 101.197C204.654 102.489 201.03 104.043 198.985 107.105C196.833 110.357 196.941 114.543 197.12 118.441C198.005 137.431 195.111 155.213 195.996 174.202" fill="#263238"/>
<path d="M190.961 168.187C190.841 168.169 190.724 168.133 190.615 168.08C190.273 167.961 189.948 167.8 189.646 167.601C188.481 166.848 187.566 165.766 187.015 164.492C186.11 162.479 185.867 160.231 186.322 158.071C187.042 155.265 188.35 152.644 190.16 150.382C192.014 147.799 194.37 145.18 195.972 141.843C196.826 140.148 197.304 138.288 197.371 136.39C197.302 134.376 196.898 132.388 196.175 130.507C195.369 128.473 194.944 126.309 194.92 124.121C195.035 121.781 195.723 119.504 196.921 117.49C198.12 115.477 199.793 113.787 201.796 112.57C203.943 111.398 206.325 110.72 208.767 110.584C211.131 110.469 213.472 110.067 215.739 109.389C217.868 108.583 219.617 107.008 220.642 104.976C221.619 102.977 222.396 100.886 222.962 98.7338C223.567 96.6692 224.368 94.6671 225.353 92.7547C227.151 89.1291 229.889 86.0525 233.282 83.8458C236.277 81.9626 239.782 81.052 243.315 81.2389C246.241 81.3903 249.029 82.5332 251.219 84.4796C252.852 85.9476 254.069 87.8202 254.747 89.9087C255.187 91.216 255.354 92.5999 255.237 93.9745C255.213 94.4525 255.132 94.9261 254.998 95.3855C254.998 95.3855 255.082 94.8952 255.118 93.9625C255.175 92.6091 254.972 91.2573 254.52 89.9804C253.696 87.6304 252.185 85.5823 250.183 84.1023C248.18 82.6223 245.779 81.7788 243.291 81.6814C239.855 81.53 236.457 82.4402 233.557 84.2883C230.256 86.4575 227.596 89.472 225.856 93.0178C224.89 94.9306 224.113 96.9332 223.536 98.9969C222.952 101.188 222.151 103.315 221.144 105.347C220.59 106.398 219.867 107.352 219.004 108.169C218.111 108.995 217.062 109.634 215.918 110.046C213.588 110.764 211.178 111.19 208.743 111.314C206.389 111.438 204.093 112.088 202.023 113.215C200.109 114.377 198.508 115.988 197.359 117.91C196.211 119.832 195.55 122.005 195.434 124.241C195.455 126.361 195.86 128.46 196.63 130.435C197.391 132.374 197.815 134.428 197.885 136.51C197.805 138.484 197.299 140.418 196.402 142.178C194.728 145.598 192.349 148.157 190.483 150.752C188.683 152.95 187.37 155.506 186.633 158.25C186.156 160.338 186.353 162.523 187.195 164.492C187.712 165.747 188.574 166.829 189.682 167.613C190.483 168.02 190.973 168.14 190.961 168.187Z" fill="#455A64"/>
<path d="M252.415 75.9773C252.705 75.9987 252.987 76.0845 253.24 76.2284C253.958 76.5329 254.63 76.9353 255.237 77.4242C257.32 79.0408 258.701 81.3982 259.09 84.0063C259.48 86.6144 258.85 89.2723 257.33 91.4274C256.888 92.0696 256.366 92.6524 255.775 93.1613C255.345 93.52 255.082 93.6755 255.058 93.6396C255.732 92.8755 256.367 92.0773 256.959 91.248C258.307 89.1466 258.847 86.628 258.48 84.1588C258.113 81.6896 256.863 79.4371 254.962 77.8188C254.149 77.1564 253.299 76.5416 252.415 75.9773V75.9773Z" fill="#455A64"/>
<path d="M299.267 221.115C299.52 220.379 299.723 219.628 299.877 218.867C300.158 216.779 299.795 214.656 298.837 212.78C297.362 210.026 295.015 207.839 292.164 206.562C290.496 205.772 288.754 205.152 286.962 204.708C285.097 204.23 283.124 203.835 281.151 203.189C279.165 202.648 277.334 201.649 275.805 200.271C274.436 198.9 273.55 197.12 273.282 195.201C272.959 193.419 272.852 191.733 272.457 190.227C272.103 188.833 271.446 187.534 270.532 186.424C269.194 184.797 267.418 183.59 265.414 182.944C263.991 182.513 263.141 182.513 263.141 182.442C263.344 182.422 263.549 182.422 263.751 182.442C264.336 182.482 264.917 182.574 265.485 182.717C267.583 183.295 269.458 184.491 270.867 186.149C271.851 187.295 272.566 188.648 272.959 190.107C273.39 191.673 273.521 193.384 273.856 195.106C274.102 196.921 274.943 198.603 276.248 199.889C277.714 201.191 279.462 202.136 281.354 202.651C283.279 203.273 285.252 203.68 287.13 204.17C288.945 204.614 290.708 205.247 292.391 206.059C295.337 207.408 297.739 209.713 299.208 212.6C300.165 214.562 300.475 216.777 300.093 218.926C299.979 219.5 299.798 220.057 299.554 220.589C299.477 220.773 299.381 220.95 299.267 221.115Z" fill="#455A64"/>
<path d="M207.284 183.661C196.522 180.791 187.314 170.304 183.559 159.864C179.804 149.425 179.804 138.029 180.773 126.979C181.467 118.979 182.878 110.513 188.187 104.486C196.199 95.3975 204.929 90.7577 216.983 91.1404" fill="#263238"/>
<path d="M269.826 206.98L259.841 204.469C260.929 203.721 261.723 202.616 262.085 201.346C262.448 200.076 262.356 198.719 261.826 197.509C261.194 195.958 260.148 194.611 258.803 193.613C257.458 192.616 255.864 192.007 254.197 191.853L208.684 186.711C207.888 186.605 207.08 186.769 206.388 187.176C205.696 187.584 205.161 188.211 204.869 188.959C202.852 194.093 202.784 198.318 204.666 201.635H204.45L195.673 203.381L180.797 334.611L278.233 330.055L269.826 206.98Z" fill="#F5F5F5"/>
<path d="M255.5 204.971C254.902 205.146 254.29 205.266 253.671 205.33C252.475 205.521 250.765 205.724 248.636 205.94C237.496 206.975 226.266 206.415 215.285 204.277C213.18 203.859 211.494 203.476 210.334 203.165C209.724 203.047 209.128 202.871 208.552 202.639C209.17 202.685 209.782 202.785 210.382 202.938C211.577 203.165 213.264 203.488 215.368 203.847C226.339 205.735 237.497 206.289 248.6 205.497C250.729 205.354 252.451 205.198 253.647 205.079C254.261 204.994 254.88 204.958 255.5 204.971V204.971Z" fill="#263238"/>
<path d="M211.458 225.826C212.416 223.836 213.557 221.938 214.866 220.158C216.008 218.265 217.325 216.484 218.8 214.837C217.84 216.829 216.695 218.727 215.38 220.505C214.244 222.399 212.931 224.181 211.458 225.826V225.826Z" fill="#E0E0E0"/>
<path d="M242.86 228.051C239.821 224.93 237.086 221.526 234.693 217.886C236.286 219.377 237.735 221.014 239.022 222.777C240.469 224.407 241.754 226.173 242.86 228.051V228.051Z" fill="#E0E0E0"/>
<path d="M228.271 244.732C227.584 242.605 227.091 240.42 226.8 238.203C226.303 236.024 226.018 233.801 225.951 231.566C226.641 233.693 227.133 235.879 227.422 238.095C227.906 240.277 228.191 242.499 228.271 244.732V244.732Z" fill="#E0E0E0"/>
<path d="M252.247 245.761C250.559 247.86 248.712 249.827 246.723 251.644C244.875 253.611 242.876 255.431 240.744 257.085C242.432 254.985 244.279 253.018 246.268 251.202C248.124 249.242 250.122 247.424 252.247 245.761V245.761Z" fill="#E0E0E0"/>
<path d="M220.092 268.123C215.685 265.49 212.096 261.685 209.724 257.133C209.891 257.025 211.721 259.895 214.603 262.921C217.485 265.946 220.211 267.967 220.092 268.123Z" fill="#E0E0E0"/>
<path d="M230.424 285.39C230.424 285.57 227.697 286.443 224.54 288.129C221.383 289.815 219.075 291.585 218.956 291.429C220.461 289.818 222.259 288.507 224.253 287.567C226.15 286.449 228.245 285.71 230.424 285.39V285.39Z" fill="#E0E0E0"/>
<path d="M247.225 286.503C246.512 285.899 245.874 285.212 245.324 284.458C244.223 283.142 242.753 281.265 241.222 279.124C239.691 276.984 238.4 274.987 237.503 273.504C236.969 272.737 236.528 271.91 236.188 271.04C236.824 271.723 237.389 272.468 237.874 273.265L241.736 278.766L245.67 284.195C246.269 284.907 246.79 285.68 247.225 286.503V286.503Z" fill="#E0E0E0"/>
<path d="M248.911 301.235C246.587 302.05 244.181 302.611 241.736 302.909C239.318 303.414 236.852 303.658 234.382 303.639C236.77 303.038 239.195 302.591 241.64 302.299C244.041 301.801 246.469 301.446 248.911 301.235Z" fill="#E0E0E0"/>
<path d="M221.706 203.118C221.622 203.118 222.196 202.4 222.687 201.132C223.294 199.474 223.475 197.689 223.213 195.943C222.916 194.182 222.398 192.467 221.67 190.836C221.318 190.169 221.045 189.463 220.857 188.732C221.356 189.305 221.76 189.955 222.053 190.657C222.923 192.277 223.517 194.031 223.811 195.847C224.1 197.701 223.847 199.599 223.081 201.312C222.814 202.038 222.335 202.667 221.706 203.118V203.118Z" fill="#E0E0E0"/>
<path d="M239.907 193.288C240.759 194.462 241.369 195.794 241.699 197.207C242.03 198.62 242.075 200.085 241.832 201.515C241.653 201.515 241.629 199.614 241.09 197.354C240.552 195.094 239.775 193.384 239.907 193.288Z" fill="#E0E0E0"/>
<path d="M322 286.79L367.322 207.183L372.787 193.372C372.787 193.372 386.921 162.998 387.902 159.888C389.038 156.301 391.035 156.014 392.327 156.516C394.336 157.317 394.981 160.307 394.096 163.404C393.785 164.468 388.297 181.162 388.297 181.162C389.773 179.89 391.339 178.727 392.984 177.682C396.464 175.291 402.838 175.41 408.745 177.515C414.653 179.62 416.112 180.732 415.406 183.052C415.25 183.487 414.998 183.882 414.669 184.207C414.34 184.532 413.942 184.779 413.505 184.929C412.114 185.51 410.555 185.544 409.14 185.025C399.645 181.796 395.436 186.077 395.436 186.077L394.73 187.883C394.73 187.883 401.905 185.599 405.923 188.827C406.523 189.301 407.026 189.886 407.406 190.549C408.706 190.974 409.873 191.731 410.791 192.745C411.709 193.759 412.346 194.996 412.64 196.332C412.933 197.668 412.873 199.057 412.465 200.363C412.056 201.668 411.314 202.845 410.312 203.775C409.876 204.272 409.3 204.625 408.659 204.787C408.019 204.949 407.344 204.913 406.724 204.684C406.145 204.289 405.679 203.749 405.373 203.118C405.178 202.801 404.958 202.501 404.715 202.221L402.013 207.004C402.013 207.004 395.352 217.408 392.96 222.275L361.749 305.421C360.723 308.158 359.162 310.663 357.157 312.79C355.152 314.917 352.743 316.623 350.071 317.809C347.399 318.994 344.518 319.636 341.595 319.695C338.673 319.755 335.767 319.232 333.049 318.156V318.156C330.116 316.998 327.466 315.224 325.279 312.953C323.091 310.682 321.417 307.968 320.369 304.994C319.321 302.019 318.925 298.855 319.206 295.714C319.488 292.574 320.44 289.53 322 286.79V286.79Z" fill="#FFBE9D"/>
<path d="M370.443 206.908C372.045 207.961 374.258 207.243 375.693 205.999C377.128 204.756 378.084 203.046 379.472 201.695C383.501 197.665 390.234 197.282 394.096 193.061C394.635 192.475 395.113 191.578 394.647 190.932C394.18 190.286 393.319 190.406 392.602 190.549L374.054 194.221" fill="#FFBE9D"/>
<path d="M374.054 194.221C374.679 193.938 375.339 193.737 376.015 193.623C377.295 193.3 379.16 192.881 381.456 192.427L389.54 190.717L391.932 190.227C392.853 189.889 393.87 189.924 394.766 190.322C395.022 190.512 395.216 190.774 395.322 191.074C395.429 191.374 395.443 191.7 395.364 192.008C395.241 192.515 394.994 192.983 394.646 193.372C394.021 194.063 393.319 194.681 392.554 195.213C389.469 197.354 386.084 198.227 383.382 199.65C382.092 200.259 380.906 201.066 379.866 202.041C378.909 202.962 378.156 204.014 377.367 204.911C376.799 205.703 376.064 206.36 375.215 206.837C374.366 207.314 373.423 207.6 372.452 207.674C371.029 207.674 370.443 206.968 370.491 206.956C371.114 207.17 371.77 207.271 372.428 207.255C373.31 207.109 374.152 206.782 374.901 206.294C375.65 205.806 376.29 205.169 376.781 204.421C377.547 203.376 378.365 202.37 379.232 201.408C380.316 200.333 381.563 199.437 382.927 198.753C385.714 197.246 389.086 196.361 391.932 194.328C392.618 193.841 393.251 193.284 393.821 192.666C394.347 192.08 394.527 191.375 394.156 191.171C393.785 190.968 392.96 191.064 392.135 191.231L389.744 191.674L381.612 193.168C379.292 193.575 377.415 193.886 376.111 194.077C375.437 194.232 374.743 194.281 374.054 194.221Z" fill="#EB996E"/>
<path d="M394.479 187.907C394.954 186.797 395.683 185.813 396.608 185.037C397.643 184.26 398.901 183.841 400.195 183.841C401.821 183.851 403.435 184.117 404.978 184.63C406.555 185.162 408.182 185.531 409.833 185.73C411.22 185.889 412.624 185.675 413.899 185.108C414.338 184.906 414.723 184.604 415.024 184.226C415.326 183.848 415.534 183.405 415.633 182.932C415.724 182.599 415.724 182.248 415.633 181.916C415.562 181.916 415.562 182.274 415.382 182.872C415.251 183.275 415.033 183.645 414.744 183.954C414.454 184.264 414.101 184.507 413.708 184.666C412.491 185.118 411.181 185.266 409.893 185.096C408.289 184.844 406.712 184.444 405.182 183.901C403.585 183.375 401.912 183.116 400.231 183.135C398.819 183.168 397.459 183.673 396.369 184.57C395.645 185.172 395.089 185.951 394.754 186.83C394.455 187.536 394.431 187.895 394.479 187.907Z" fill="#EB996E"/>
<path d="M394.419 162.208C393.95 163.278 393.574 164.386 393.295 165.521C392.59 167.817 391.753 170.543 390.82 173.557C389.887 176.57 388.966 179.273 388.225 181.557C387.792 182.64 387.46 183.761 387.232 184.905C387.827 183.898 388.316 182.832 388.691 181.724C389.481 179.715 390.485 176.941 391.49 173.772C392.494 170.603 393.271 167.793 393.774 165.652C394.109 164.53 394.326 163.376 394.419 162.208V162.208Z" fill="#EB996E"/>
<path d="M397.038 192.905C397.403 192.958 397.774 192.958 398.138 192.905C398.597 192.827 399.068 192.848 399.517 192.968C399.967 193.088 400.386 193.303 400.745 193.599C400.953 193.818 401.101 194.088 401.174 194.381C401.247 194.674 401.244 194.981 401.164 195.273C400.971 196.007 400.685 196.715 400.315 197.378C399.836 198.209 399.678 199.188 399.872 200.128C400.036 200.626 400.313 201.079 400.683 201.451C401.052 201.822 401.504 202.102 402.001 202.269C402.491 202.424 403.009 202.478 403.521 202.426C404.033 202.375 404.529 202.22 404.978 201.97C405.816 201.542 406.504 200.871 406.952 200.044C407.599 198.682 408.042 197.231 408.267 195.739C408.441 194.738 408.441 193.715 408.267 192.714C408.229 192.338 408.084 191.981 407.848 191.685C407.789 191.685 407.944 192.068 408.004 192.75C408.055 193.725 407.971 194.703 407.753 195.656C407.469 197.069 407.003 198.44 406.366 199.733C405.976 200.462 405.357 201.04 404.604 201.38C403.852 201.72 403.008 201.801 402.204 201.611C401.81 201.483 401.451 201.266 401.157 200.975C400.862 200.684 400.639 200.329 400.506 199.937C400.35 199.156 400.482 198.344 400.877 197.653C401.249 196.929 401.53 196.161 401.714 195.369C401.794 194.989 401.776 194.595 401.661 194.225C401.545 193.854 401.337 193.519 401.056 193.252C400.641 192.923 400.154 192.695 399.635 192.588C399.116 192.48 398.579 192.494 398.067 192.63C397.711 192.666 397.364 192.758 397.038 192.905V192.905Z" fill="#EB996E"/>
<path d="M404.859 201.276C404.859 201.276 404.632 201.587 404.656 202.257C404.689 202.726 404.832 203.182 405.073 203.587C405.314 203.992 405.646 204.335 406.043 204.588C406.656 204.941 407.351 205.126 408.058 205.126C408.765 205.126 409.46 204.941 410.073 204.588C411.548 203.738 412.636 202.349 413.11 200.714C413.631 199.113 413.631 197.388 413.11 195.787C412.686 194.493 411.922 193.337 410.898 192.439C410.223 191.835 409.44 191.364 408.59 191.052C408.288 190.907 407.956 190.833 407.621 190.836C408.687 191.352 409.677 192.012 410.563 192.798C411.566 193.776 412.275 195.017 412.609 196.378C412.943 197.739 412.889 199.167 412.452 200.499C412.025 201.968 411.066 203.226 409.762 204.026C409.24 204.332 408.65 204.501 408.046 204.518C407.442 204.535 406.843 204.399 406.306 204.122C405.95 203.914 405.642 203.633 405.402 203.297C405.163 202.961 404.998 202.578 404.919 202.173C404.799 201.647 404.919 201.276 404.859 201.276Z" fill="#EB996E"/>
<path d="M389.768 208.786C389.294 208.466 388.736 208.295 388.165 208.295C386.706 208.153 385.241 208.503 384.004 209.288L384.518 209.635C384.679 208.845 384.791 208.047 384.853 207.243C385.271 202.627 383.8 199.064 383.657 199.159C384.117 201.808 384.289 204.498 384.171 207.183C384.113 207.95 384.013 208.712 383.872 209.467L383.729 210.245L384.386 209.802C385.507 209.071 386.815 208.68 388.153 208.678C389.146 208.702 389.744 208.869 389.768 208.786Z" fill="#EB996E"/>
<path d="M399.203 180.421C399.011 180.421 399.274 181.856 400.542 182.956C401.809 184.056 403.232 184.152 403.232 183.948C403.232 183.745 402.096 183.398 401.008 182.43C399.92 181.461 399.394 180.349 399.203 180.421Z" fill="#EB996E"/>
<path d="M257.712 352.847L305.127 353.313L297.175 318.909L299.841 325.403C302.299 331.398 306.485 336.526 311.866 340.136C317.247 343.745 323.58 345.672 330.06 345.672C345.056 345.672 355.423 334.515 361.761 320.93C376.59 289.169 390.88 238.024 390.88 238.024L361.977 212.624C341.05 252.206 321.39 286.574 321.39 286.574C321.39 286.574 315.71 269.319 311.321 253.916C306.933 238.514 306.968 230.43 300.236 222.753C289.868 210.938 275.124 208.008 261.396 204.469L260.881 268.374L257.712 352.847Z" fill="#4D55CB"/>
<path d="M203.458 305.313L289.796 322.054L293.994 355.227H161.616C157.992 355.271 154.399 354.56 151.066 353.138C147.732 351.716 144.732 349.614 142.257 346.968C139.781 344.321 137.885 341.187 136.688 337.767C135.492 334.346 135.021 330.713 135.308 327.101C137.209 302.921 139.278 273.145 140.856 260.553C142.052 250.735 145.998 240.583 150.626 231.853C157.311 219.273 179.589 203.153 199.117 202.316L202.812 284.553" fill="#4D55CB"/>
<g opacity="0.4">
<path opacity="0.4" d="M257.712 352.847L305.127 353.313L297.175 318.909L299.841 325.403C302.299 331.398 306.485 336.526 311.866 340.136C317.247 343.745 323.58 345.672 330.06 345.672C345.056 345.672 355.423 334.515 361.761 320.93C376.59 289.169 390.88 238.024 390.88 238.024L361.977 212.624C341.05 252.206 321.39 286.574 321.39 286.574C321.39 286.574 315.71 269.319 311.321 253.916C306.933 238.514 306.969 230.43 300.236 222.753C289.868 210.938 275.124 208.008 261.396 204.469L260.881 268.374L257.712 352.847Z" fill="black"/>
<path opacity="0.4" d="M203.458 305.313L281.33 319.591C282.917 319.885 284.381 320.643 285.537 321.769C286.692 322.895 287.488 324.338 287.823 325.917L293.994 355.298H161.616C157.992 355.343 154.399 354.632 151.066 353.21C147.732 351.787 144.732 349.686 142.257 347.04C139.781 344.393 137.885 341.259 136.688 337.839C135.492 334.418 135.021 330.785 135.308 327.173C137.209 302.993 139.278 273.217 140.856 260.625C142.052 250.807 145.998 240.655 150.626 231.925C157.311 219.345 179.589 203.225 199.117 202.388L202.812 284.625" fill="black"/>
</g>
<path d="M187.015 302.849C186.984 302.587 186.984 302.322 187.015 302.06C187.015 301.474 187.015 300.721 187.015 299.8C187.015 297.755 187.015 294.933 187.015 291.429C187.015 284.41 186.884 274.688 186.345 264.009C186.07 258.652 185.724 253.558 185.353 248.942C185.179 244.844 184.599 240.774 183.619 236.792C182.935 234.134 181.632 231.675 179.816 229.617C179.113 228.899 178.371 228.22 177.592 227.584C178.505 228.054 179.333 228.672 180.043 229.414C181.979 231.457 183.373 233.952 184.097 236.672C185.142 240.687 185.767 244.798 185.963 248.942C186.369 253.569 186.728 258.664 187.003 264.021C187.553 274.783 187.613 284.458 187.493 291.525C187.422 295.041 187.326 297.887 187.242 299.896L187.111 302.156C187.106 302.39 187.074 302.623 187.015 302.849Z" fill="#263238"/>
<path d="M288.122 324.446C287.212 323.44 286.151 322.581 284.977 321.899C283.582 321.139 282.1 320.549 280.565 320.141C278.783 319.627 276.69 319.232 274.382 318.766C265.15 316.877 252.415 314.258 238.304 311.591C224.193 308.924 211.35 306.808 202.059 305.325L191.045 303.567L188.056 303.065C187.703 303.022 187.355 302.95 187.015 302.849C187.368 302.851 187.72 302.883 188.067 302.945L191.081 303.328C193.688 303.675 197.467 304.201 202.118 304.894C211.434 306.281 224.289 308.338 238.412 310.981C252.534 313.624 265.27 316.303 274.466 318.288C276.774 318.79 278.867 319.22 280.66 319.77C282.213 320.21 283.704 320.845 285.097 321.66C285.992 322.165 286.799 322.811 287.488 323.573C287.672 323.762 287.84 323.966 287.991 324.183C288.074 324.327 288.134 324.446 288.122 324.446Z" fill="#263238"/>
<path d="M187.278 302.849C187.278 302.957 185.688 303.328 183.224 304.332C181.786 304.927 180.388 305.614 179.039 306.389C177.408 307.362 175.853 308.457 174.387 309.666C172.962 310.901 171.635 312.244 170.417 313.684C169.415 314.871 168.496 316.125 167.667 317.439C166.256 319.699 165.61 321.229 165.502 321.181C165.577 320.796 165.701 320.422 165.873 320.069C166.28 319.087 166.752 318.132 167.284 317.211C168.082 315.847 168.982 314.544 169.975 313.313C172.429 310.302 175.432 307.782 178.824 305.887C180.198 305.111 181.634 304.451 183.117 303.914C184.114 303.542 185.137 303.242 186.178 303.017C186.535 302.91 186.906 302.854 187.278 302.849V302.849Z" fill="#263238"/>
<path d="M298.765 323.513C298.683 323.244 298.623 322.968 298.586 322.688C298.49 322.09 298.359 321.301 298.203 320.297C297.868 318.228 297.426 315.238 296.924 311.531C295.919 304.129 294.699 293.869 293.671 282.508C292.643 271.148 292.033 260.84 291.698 253.366C291.53 249.635 291.435 246.61 291.387 244.517C291.387 243.521 291.387 242.723 291.387 242.125C291.361 241.847 291.361 241.567 291.387 241.288C291.452 241.563 291.484 241.844 291.483 242.125L291.638 244.517C291.77 246.67 291.937 249.671 292.152 253.342C292.595 260.804 293.288 271.1 294.305 282.449C295.321 293.797 296.481 304.057 297.378 311.471C297.821 315.131 298.191 318.108 298.454 320.261C298.562 321.253 298.658 322.042 298.729 322.652C298.778 322.937 298.79 323.226 298.765 323.513V323.513Z" fill="#263238"/>
<path d="M327.393 310.658C327.393 310.658 327.118 310.395 326.7 309.869C326.12 309.106 325.589 308.307 325.109 307.477C321.9 302 320.421 295.681 320.864 289.349C320.924 288.396 321.052 287.449 321.247 286.515C321.289 286.166 321.378 285.824 321.51 285.498C321.617 285.498 321.39 286.981 321.307 289.373C321.107 295.615 322.55 301.801 325.492 307.31C326.616 309.379 327.489 310.587 327.393 310.658Z" fill="#263238"/>
<path d="M186.668 258.413C186.668 258.413 186.513 258.472 186.226 258.508C185.794 258.578 185.359 258.621 184.922 258.64C183.318 258.707 181.712 258.579 180.139 258.257C177.803 257.787 175.522 257.074 173.335 256.129C170.86 255.1 168.229 253.737 165.478 252.409C162.904 251.116 160.238 250.013 157.502 249.109C155.282 248.363 152.975 247.909 150.638 247.758C148.474 247.687 146.31 247.933 144.217 248.487C144.345 248.402 144.486 248.337 144.635 248.296C145.023 248.126 145.422 247.986 145.831 247.877C147.39 247.46 149.001 247.274 150.614 247.327C153.002 247.402 155.368 247.804 157.646 248.523C160.417 249.415 163.112 250.526 165.706 251.847C168.468 253.211 171.075 254.55 173.514 255.59C175.662 256.545 177.896 257.289 180.187 257.815C182.319 258.25 184.493 258.451 186.668 258.413V258.413Z" fill="#FAFAFA"/>
<path d="M201.509 255.507C199.211 256.206 196.859 256.71 194.477 257.013C192.117 257.527 189.716 257.828 187.302 257.91C189.599 257.211 191.952 256.707 194.334 256.404C196.693 255.889 199.095 255.589 201.509 255.507V255.507Z" fill="#FAFAFA"/>
<path d="M186.13 281.169C185.58 281.48 184.999 281.732 184.396 281.923C183.26 282.365 181.598 282.963 179.529 283.633C174.119 285.368 168.598 286.735 163.003 287.722C159.726 288.296 156.581 288.715 153.711 289.002C151.166 289.331 148.594 289.399 146.034 289.205C144.298 289.065 142.607 288.581 141.06 287.782C140.639 287.563 140.239 287.307 139.864 287.017C139.726 286.922 139.601 286.81 139.493 286.682C139.493 286.682 140.067 287.053 141.155 287.567C142.705 288.267 144.372 288.672 146.07 288.763C148.598 288.894 151.133 288.781 153.64 288.428C156.498 288.105 159.619 287.674 162.883 287.1C168.452 286.113 173.962 284.815 179.386 283.214C181.467 282.592 183.141 282.018 184.301 281.695C184.897 281.475 185.508 281.299 186.13 281.169Z" fill="#FAFAFA"/>
<path d="M201.114 287.471C198.959 287.813 196.777 287.954 194.597 287.89C192.423 288.027 190.241 287.959 188.079 287.686C190.234 287.344 192.416 287.204 194.597 287.268C196.771 287.131 198.953 287.199 201.114 287.471V287.471Z" fill="#FAFAFA"/>
<path d="M139.577 341.953C139.591 341.733 139.635 341.515 139.708 341.307C139.828 340.829 139.995 340.243 140.187 339.514L140.545 338.222C140.701 337.756 140.904 337.265 141.095 336.727C141.525 335.506 142.02 334.308 142.578 333.14L143.547 331.095C143.894 330.377 144.336 329.684 144.743 328.942C145.645 327.374 146.626 325.854 147.684 324.386C152.57 317.632 158.939 312.089 166.303 308.183C167.905 307.337 169.549 306.574 171.23 305.899C172.031 305.6 172.773 305.253 173.526 305.014L175.691 304.332C176.931 303.937 178.192 303.614 179.469 303.364C180.032 303.244 180.546 303.113 181.024 303.029L182.363 302.849L184.205 302.622C184.419 302.591 184.637 302.591 184.851 302.622C184.647 302.7 184.434 302.753 184.217 302.778L182.399 303.125L181.084 303.352L179.541 303.734C178.441 304.033 177.15 304.284 175.822 304.787L173.694 305.504C172.952 305.755 172.211 306.102 171.434 306.413C169.777 307.1 168.157 307.871 166.578 308.721C162.982 310.71 159.597 313.058 156.474 315.729C153.389 318.451 150.585 321.475 148.103 324.757C147.027 326.312 145.962 327.771 145.149 329.241C144.731 329.971 144.288 330.652 143.953 331.358L142.949 333.367C142.267 334.635 141.849 335.854 141.394 336.954C141.191 337.481 140.976 337.971 140.808 338.425L140.39 339.693L139.804 341.451C139.747 341.626 139.67 341.794 139.577 341.953Z" fill="#FAFAFA"/>
<path d="M199.547 305.217C197.547 306.955 195.885 309.047 194.645 311.388C193.34 313.947 192.414 316.682 191.894 319.507C191.276 322.983 190.876 326.493 190.698 330.019C190.549 333.57 190.15 337.107 189.502 340.602C188.917 343.467 187.905 346.228 186.501 348.793C185.563 350.512 184.352 352.068 182.913 353.397C182.522 353.76 182.102 354.092 181.658 354.39C181.359 354.593 181.191 354.701 181.18 354.677C183.216 352.978 184.912 350.908 186.178 348.578C187.503 346.033 188.454 343.311 189 340.494C189.637 337.022 190.036 333.51 190.196 329.983C190.351 326.428 190.751 322.888 191.392 319.388C191.949 316.523 192.932 313.758 194.31 311.184C195.25 309.449 196.461 307.874 197.897 306.521C198.273 306.16 198.673 305.825 199.093 305.516C199.231 305.398 199.384 305.297 199.547 305.217Z" fill="#FAFAFA"/>
<path d="M219.96 355.43C219.793 355.43 219.96 345.122 220.403 332.422C220.845 319.723 221.3 309.427 221.467 309.427C221.634 309.427 221.467 319.735 221.024 332.446C220.582 345.158 220.128 355.442 219.96 355.43Z" fill="#FAFAFA"/>
<path d="M252.415 353.66C252.19 353.181 252.014 352.68 251.889 352.165C251.695 351.576 251.531 350.978 251.398 350.372C251.243 349.666 251.028 348.865 250.896 347.98C250.524 345.87 250.312 343.736 250.262 341.594C250.145 336.332 250.954 331.09 252.654 326.108C253.347 324.079 254.19 322.105 255.177 320.201C255.572 319.376 256.014 318.682 256.373 318.06C256.677 317.519 257.012 316.996 257.378 316.494C257.644 316.037 257.961 315.612 258.322 315.226C258.43 315.286 257.126 317.14 255.56 320.404C254.63 322.309 253.831 324.275 253.168 326.288C251.53 331.218 250.722 336.387 250.777 341.582C250.804 343.699 250.968 345.812 251.267 347.908C251.865 351.472 252.534 353.624 252.415 353.66Z" fill="#FAFAFA"/>
<path d="M197.299 221.497C197.299 221.593 195.41 220.768 192.301 219.763C184.202 217.149 175.62 216.389 167.188 217.539C163.96 217.982 161.987 218.484 161.963 218.376C162.391 218.169 162.846 218.021 163.314 217.934C164.565 217.588 165.835 217.312 167.117 217.109C175.612 215.697 184.327 216.467 192.444 219.345C193.664 219.775 194.861 220.266 196.032 220.816C196.481 220.99 196.906 221.219 197.299 221.497V221.497Z" fill="#FAFAFA"/>
<path d="M291.77 271.83C290.291 271.907 288.809 271.883 287.333 271.758C284.595 271.65 280.816 271.507 276.642 271.411C272.469 271.316 268.69 271.256 265.952 271.232C264.471 271.279 262.989 271.227 261.515 271.076C261.907 270.984 262.308 270.936 262.711 270.933C263.476 270.933 264.588 270.825 265.964 270.789C268.702 270.706 272.481 270.682 276.666 270.789C280.852 270.897 284.63 271.112 287.429 271.339C288.792 271.447 289.892 271.543 290.657 271.638C291.034 271.662 291.407 271.726 291.77 271.83V271.83Z" fill="#FAFAFA"/>
<path d="M315.375 267.298C315.375 267.405 313.88 267.919 311.549 269.067C305.449 272.068 300.281 276.673 296.601 282.389C295.19 284.577 294.508 286.036 294.412 285.976C294.479 285.599 294.608 285.235 294.795 284.9C295.214 283.95 295.693 283.027 296.23 282.138C297.984 279.181 300.187 276.514 302.759 274.233C305.325 271.946 308.224 270.062 311.357 268.649C312.302 268.223 313.273 267.856 314.263 267.549C314.621 267.417 314.995 267.332 315.375 267.298Z" fill="#FAFAFA"/>
<path d="M303.728 228.971C301.669 228.901 299.614 229.188 297.653 229.82C295.537 230.559 293.485 231.471 291.518 232.547C289.091 233.892 286.555 235.033 283.937 235.955C279.098 237.505 273.951 237.838 268.953 236.924C267.451 236.651 265.975 236.251 264.541 235.728C264.004 235.56 263.487 235.335 262.998 235.058C262.998 234.938 265.246 235.883 268.977 236.493C273.906 237.263 278.946 236.874 283.698 235.357C286.286 234.441 288.8 233.33 291.219 232.033C293.221 230.97 295.314 230.09 297.474 229.402C298.942 228.936 300.477 228.713 302.018 228.744C302.419 228.756 302.818 228.796 303.214 228.864C303.584 228.912 303.74 228.947 303.728 228.971Z" fill="#FAFAFA"/>
<path d="M297.761 309.116C297.327 309.391 296.861 309.612 296.374 309.773C295.919 309.965 295.357 310.192 294.687 310.407C294.018 310.622 293.264 310.909 292.415 311.125C290.413 311.683 288.376 312.106 286.317 312.392C283.795 312.719 281.253 312.851 278.711 312.787C276.17 312.692 273.64 312.409 271.142 311.938C269.114 311.528 267.116 310.981 265.162 310.3C264.313 310.036 263.584 309.714 262.938 309.45C262.292 309.187 261.742 308.936 261.288 308.721C260.812 308.523 260.359 308.275 259.937 307.98C259.937 307.872 261.958 308.829 265.306 309.881C267.267 310.498 269.263 310.993 271.285 311.364C276.231 312.28 281.288 312.433 286.281 311.818C288.319 311.568 290.34 311.192 292.332 310.694C295.704 309.833 297.725 309.008 297.761 309.116Z" fill="#FAFAFA"/>
<path d="M325.241 344.512C325.07 344.404 324.913 344.276 324.774 344.129C324.499 343.854 324.045 343.484 323.579 342.934C322.135 341.389 320.867 339.688 319.8 337.863C316.349 331.748 314.513 324.855 314.466 317.833C314.474 310.861 315.387 303.919 317.181 297.181C317.827 294.598 318.377 292.518 318.819 291.094C319.022 290.437 319.19 289.899 319.321 289.456C319.453 289.014 319.513 288.882 319.537 288.894C319.534 289.093 319.502 289.291 319.441 289.48C319.345 289.935 319.214 290.485 319.058 291.154C318.7 292.697 318.209 294.742 317.611 297.289C315.961 304.004 315.122 310.894 315.112 317.809C315.151 324.718 316.879 331.513 320.146 337.6C321.171 339.424 322.373 341.142 323.734 342.73C324.679 343.878 325.277 344.464 325.241 344.512Z" fill="#FAFAFA"/>
<path d="M368.757 303.902C366.846 302.386 364.712 301.176 362.431 300.314C359.936 299.451 357.377 298.784 354.778 298.317C351.549 297.773 348.355 297.042 345.211 296.129C339.534 294.283 334.352 291.166 330.06 287.017C328.765 285.765 327.566 284.418 326.472 282.987C326.078 282.485 325.815 282.066 325.623 281.791C325.432 281.516 325.348 281.36 325.372 281.349C325.835 281.814 326.266 282.31 326.664 282.831C327.811 284.197 329.046 285.487 330.359 286.694C334.67 290.694 339.799 293.709 345.39 295.531C348.502 296.439 351.659 297.181 354.849 297.755C357.47 298.258 360.046 298.974 362.551 299.896C364.242 300.535 365.83 301.422 367.262 302.527C367.653 302.821 368.021 303.144 368.362 303.495C368.661 303.758 368.781 303.89 368.757 303.902Z" fill="#FAFAFA"/>
<path d="M382.437 263.997C381.976 263.668 381.548 263.295 381.158 262.885C380.763 262.514 380.285 262.06 379.687 261.558C379.089 261.055 378.491 260.457 377.678 259.883C375.911 258.459 374.058 257.145 372.129 255.949C367.398 253.023 362.254 250.822 356.87 249.42C354.67 248.854 352.438 248.418 350.186 248.117C349.229 247.961 348.356 247.901 347.591 247.83C346.825 247.758 346.156 247.698 345.618 247.674C345.052 247.672 344.488 247.62 343.932 247.519C344.489 247.432 345.054 247.404 345.618 247.435C346.283 247.402 346.949 247.402 347.615 247.435C348.38 247.435 349.277 247.495 350.245 247.626C352.522 247.875 354.779 248.275 357.002 248.822C359.726 249.52 362.396 250.416 364.99 251.501C367.563 252.622 370.049 253.933 372.428 255.423C374.363 256.657 376.212 258.02 377.965 259.501C378.73 260.111 379.352 260.697 379.926 261.271C380.416 261.716 380.883 262.187 381.325 262.682C381.742 263.079 382.115 263.52 382.437 263.997V263.997Z" fill="#FAFAFA"/>
<path d="M277.802 209.109C277.1 209.577 276.335 209.943 275.53 210.197C273.644 210.937 271.705 211.536 269.73 211.991C267.763 212.454 265.765 212.774 263.751 212.947C262.919 213.074 262.072 213.074 261.24 212.947C261.24 212.756 265.031 212.445 269.611 211.357C274.191 210.269 277.731 208.929 277.802 209.109Z" fill="#FAFAFA"/>
<path d="M320.218 377.529C320.374 378.062 320.393 378.626 320.274 379.169C320.155 379.712 319.903 380.216 319.539 380.636C319.175 381.056 318.711 381.378 318.191 381.573C317.67 381.767 317.109 381.828 316.559 381.75V381.75C315.921 381.66 315.324 381.385 314.839 380.961C314.355 380.536 314.005 379.979 313.833 379.359L312.816 375.604H312.972C313.075 376.146 313.048 376.705 312.893 377.235C312.738 377.765 312.459 378.25 312.08 378.651C311.7 379.051 311.23 379.356 310.71 379.539C310.189 379.723 309.632 379.78 309.085 379.705V379.705C307.519 379.705 306.167 377.421 305.713 376.213C304.53 376.328 303.339 376.117 302.268 375.603C301.197 375.088 300.288 374.29 299.638 373.296L292.619 362.342L279.62 352.835L287.489 324.745L315.459 342.85C316.559 343.711 316.726 344.046 318.472 345.684L336.529 362.294C334.485 363.49 332.751 363.43 329.904 362.294C327.058 361.158 314.598 352.727 314.598 352.727L320.218 377.421" fill="#FFBE9D"/>
<path d="M296.29 354.425C296.29 354.425 296.613 354.569 297.115 354.916L298.048 355.561C298.491 355.839 298.893 356.177 299.244 356.566C299.658 357.042 299.982 357.589 300.2 358.18C300.415 358.814 300.643 359.46 300.882 360.142L302.412 364.638C303.477 367.843 304.409 370.737 305.055 372.853C305.464 373.976 305.772 375.132 305.976 376.309C305.433 375.242 304.985 374.13 304.637 372.985C303.883 370.904 302.879 368.034 301.815 364.841C301.3 363.251 300.798 361.732 300.332 360.333C300.116 359.639 299.913 358.982 299.71 358.36C299.531 357.812 299.26 357.298 298.909 356.841C298.606 356.467 298.261 356.13 297.88 355.837L297.019 355.107C296.505 354.701 296.266 354.461 296.29 354.425Z" fill="#EB996E"/>
<path d="M313.115 376.249C312.937 375.868 312.805 375.466 312.72 375.054L311.824 371.849C311.058 369.146 310.042 365.403 308.738 361.325C307.435 357.248 306.072 353.612 304.433 351.364C303.822 350.466 303.047 349.691 302.149 349.08C301.492 348.674 301.073 348.554 301.085 348.482C301.196 348.48 301.306 348.5 301.408 348.542C301.706 348.618 301.994 348.727 302.269 348.865C303.262 349.419 304.123 350.182 304.792 351.101C306.574 353.373 308.009 357.08 309.324 361.134C310.64 365.188 311.596 369.003 312.242 371.741C312.565 373.104 312.804 374.216 312.96 374.994C313.074 375.402 313.127 375.825 313.115 376.249V376.249Z" fill="#EB996E"/>
<path d="M320.338 377.947C320.122 377.551 319.957 377.129 319.848 376.692C319.549 375.735 319.178 374.575 318.735 373.2C317.827 370.246 316.619 366.157 315.315 361.636C314.012 357.116 312.924 353.146 312.027 350.037C311.718 348.884 311.047 347.862 310.114 347.119C309.735 346.875 309.335 346.667 308.918 346.497C309.036 346.469 309.159 346.469 309.276 346.497C309.612 346.572 309.932 346.706 310.221 346.892C311.265 347.609 312.037 348.659 312.41 349.869C313.39 352.823 314.55 356.913 315.877 361.433C317.205 365.953 318.329 370.079 319.13 373.056C319.489 374.444 319.8 375.627 320.039 376.644C320.184 377.067 320.284 377.504 320.338 377.947V377.947Z" fill="#EB996E"/>
<path d="M490.265 118.632C490.265 119.46 490.51 120.269 490.97 120.958C491.43 121.646 492.084 122.182 492.849 122.499C493.613 122.816 494.455 122.899 495.267 122.737C496.079 122.576 496.824 122.177 497.41 121.592C497.995 121.007 498.394 120.261 498.555 119.449C498.717 118.637 498.634 117.796 498.317 117.031C498 116.266 497.464 115.612 496.776 115.152C496.087 114.692 495.278 114.447 494.45 114.447C493.34 114.447 492.276 114.888 491.491 115.673C490.706 116.458 490.265 117.522 490.265 118.632V118.632Z" fill="#455A64"/>
<path d="M477.697 122.818C480.008 122.818 481.882 120.944 481.882 118.632C481.882 116.321 480.008 114.447 477.697 114.447C475.385 114.447 473.511 116.321 473.511 118.632C473.511 120.944 475.385 122.818 477.697 122.818Z" fill="#455A64"/>
<path d="M456.806 116.54C456.391 117.256 456.199 118.08 456.253 118.906C456.307 119.732 456.604 120.524 457.108 121.181C457.612 121.838 458.299 122.331 459.083 122.597C459.867 122.863 460.712 122.891 461.512 122.677C462.312 122.463 463.03 122.016 463.576 121.394C464.122 120.771 464.471 120.001 464.579 119.18C464.687 118.36 464.549 117.525 464.183 116.783C463.817 116.04 463.239 115.423 462.522 115.009C462.046 114.733 461.521 114.553 460.976 114.481C460.431 114.408 459.877 114.444 459.346 114.586C458.814 114.728 458.317 114.974 457.881 115.309C457.445 115.645 457.08 116.063 456.806 116.54V116.54Z" fill="#455A64"/>
<path d="M477.434 69.735C477.155 69.7141 476.875 69.7141 476.597 69.735L474.109 69.8068C473.559 69.8068 472.913 69.8068 472.268 69.8905L470.079 70.2014L467.52 70.5721L464.65 71.2777C459.734 72.4982 455.052 74.5181 450.791 77.2568C444.488 81.2698 439.187 86.67 435.29 93.0451C431.394 99.4202 429.006 106.601 428.309 114.04C428.121 116.271 428.077 118.512 428.178 120.749C428.261 121.873 428.237 123.033 428.405 124.169C428.572 125.305 428.752 126.465 428.919 127.625C429.795 132.378 431.366 136.975 433.583 141.269C435.943 145.769 438.944 149.902 442.492 153.539C446.272 157.256 450.604 160.366 455.335 162.758C460.23 165.263 465.529 166.883 470.988 167.542C472.37 167.748 473.764 167.864 475.162 167.889C476.566 167.994 477.975 168.022 479.383 167.972C482.222 167.855 485.046 167.499 487.825 166.908C493.825 165.608 499.531 163.203 504.651 159.817L504.148 159.876L521.285 166.752L522.301 167.159L522.014 166.107L516.968 147.787L516.884 148.229C521.536 142.069 524.67 134.9 526.032 127.302C526.688 123.755 526.913 120.141 526.702 116.54C526.661 114.812 526.497 113.09 526.211 111.386C526.084 110.541 525.952 109.704 525.817 108.874C525.673 108.049 525.422 107.248 525.219 106.483C522.348 95.2166 515.567 85.3372 506.086 78.6081C502.587 76.1034 498.76 74.0916 494.713 72.6289L492.142 71.7082L489.751 71.0863L487.526 70.5363C486.809 70.4047 486.115 70.333 485.47 70.2253C484.178 70.0699 483.078 69.8427 482.038 69.7948L479.526 69.7111H477.984C477.809 69.6983 477.633 69.6983 477.458 69.7111C477.628 69.7653 477.806 69.7896 477.984 69.7829L479.514 69.9144L482.014 70.0818C483.006 70.1536 484.13 70.4047 485.422 70.596C494.724 72.2122 503.357 76.494 510.273 82.9217C517.189 89.3493 522.09 97.6464 524.382 106.806C524.561 107.595 524.812 108.384 524.956 109.197C525.099 110.01 525.195 110.824 525.327 111.661C525.6 113.334 525.752 115.024 525.781 116.719C525.969 120.238 525.736 123.767 525.087 127.23C523.699 134.661 520.591 141.664 516.011 147.679L515.856 147.882L515.927 148.133C517.522 154.049 519.188 160.159 520.926 166.465L521.655 165.82L504.519 158.92L504.256 158.812L504.005 158.968C496.656 163.837 488.109 166.592 479.299 166.932C477.924 166.98 476.547 166.956 475.174 166.86C473.808 166.835 472.446 166.719 471.096 166.513C465.758 165.867 460.577 164.285 455.789 161.838C451.161 159.496 446.918 156.459 443.209 152.833C439.731 149.289 436.782 145.262 434.456 140.875C432.296 136.66 430.766 132.152 429.912 127.493C429.732 126.298 429.553 125.233 429.385 124.109C429.218 122.985 429.242 121.861 429.158 120.749C429.046 118.557 429.078 116.36 429.254 114.172C429.905 106.85 432.216 99.772 436.009 93.4754C439.803 87.1789 444.981 81.8287 451.149 77.8308C455.337 75.0608 459.944 72.9853 464.794 71.6842L467.616 70.9309L470.151 70.5123L472.328 70.1536C472.997 70.0818 473.607 70.0579 474.145 70.022L476.621 69.8427C476.895 69.8354 477.167 69.7993 477.434 69.735V69.735Z" fill="#455A64"/>
</svg>
