<svg width="202" height="49" viewBox="0 0 202 49" fill="none" xmlns="http://www.w3.org/2000/svg">
<path d="M43.5487 26.3578C43.7325 29.5224 42.2829 32.5645 39.69 34.4224L41.2621 37.4645C41.7317 38.3833 41.7929 39.4653 41.3846 40.4249C40.9967 41.3845 40.2004 42.1399 39.2204 42.4666L37.6075 42.977C36.9359 43.2033 36.2108 43.2168 35.5312 43.0159C34.8516 42.8149 34.2506 42.4092 33.81 41.8541L29.4817 36.7499C27.6646 36.4437 25.9496 35.6678 24.5 34.5041C23.4792 34.8103 22.4583 34.9737 21.4375 34.9737C19.6408 34.9737 17.8442 34.4224 16.3333 33.3608C15.2512 33.6874 14.1487 33.8303 13.0258 33.8099C11.4129 33.8303 9.82041 33.5037 8.32999 32.8912C6.89539 32.2511 5.66957 31.2207 4.79236 29.9175C3.91514 28.6143 3.42185 27.0908 3.36874 25.5208C3.20541 24.0508 3.45041 22.5603 4.08333 21.2128C3.49124 19.6816 3.42999 18.0074 3.94041 16.4558C4.69583 14.5162 6.12499 12.9033 7.90124 11.8824C9.08541 8.432 12.4133 6.12492 16.0679 6.36992C19.3346 3.30742 24.3367 2.98075 27.9708 5.6145C28.8283 5.38992 29.7267 5.26742 30.625 5.26742C33.4017 5.20617 36.0354 6.43117 37.7708 8.61575C41.9358 9.69783 44.9167 13.4137 45.08 17.742C45.1821 20.0083 44.5696 22.2337 43.3242 24.1324C43.4671 24.8674 43.5487 25.6024 43.5487 26.3578ZM33.3404 23.4791C34.5042 23.622 35.4229 24.4999 35.4229 25.6637C35.4229 26.2052 35.2078 26.7245 34.8249 27.1073C34.442 27.4902 33.9227 27.7053 33.3812 27.7053H32.095C31.4417 29.5428 30.2983 31.1558 28.7875 32.3808C29.2979 32.5645 29.8287 32.6666 30.3596 32.8095C40.8333 32.6666 39.6083 26.2762 39.6083 26.1741C39.5541 24.7717 38.9451 23.4482 37.9151 22.4948C36.8852 21.5414 35.5187 21.0362 34.1162 21.0903C33.5748 21.0903 33.0555 20.8752 32.6726 20.4923C32.2897 20.1095 32.0746 19.5902 32.0746 19.0487C32.0746 18.5072 32.2897 17.9879 32.6726 17.605C33.0555 17.2221 33.5748 17.007 34.1162 17.007C36.6275 17.0683 39.0367 18.0074 40.915 19.6612C41.0171 19.0691 41.0783 18.4566 41.0783 17.8441C40.9558 15.3124 39.8125 13.1074 35.2187 12.6787C32.6667 6.63533 26.2354 9.98367 26.2354 11.862C26.1742 12.3316 26.6642 13.332 26.7458 13.3933C27.2873 13.3933 27.8066 13.6084 28.1895 13.9912C28.5724 14.3741 28.7875 14.8934 28.7875 15.4349C28.7875 16.5578 27.8687 17.4766 26.7458 17.4766C25.6637 17.4358 24.6429 17.0274 23.8262 16.3333C22.8462 16.9662 21.7233 17.3541 20.5596 17.4766C19.3958 17.5787 18.4362 16.762 18.375 15.6391C18.3374 15.3724 18.3547 15.1008 18.4258 14.841C18.497 14.5813 18.6204 14.3388 18.7887 14.1285C18.957 13.9182 19.1664 13.7444 19.4042 13.618C19.6421 13.4916 19.9032 13.4151 20.1717 13.3933C20.4983 13.3524 22.0908 13.1074 22.0908 11.8212C22.0908 10.4737 22.6012 9.18742 23.4792 8.16658C21.6008 7.65617 19.5796 8.32992 17.5379 10.8003C13.7812 10.2083 12.25 10.7187 11.1271 14.6999C9.18749 15.6595 8.16666 16.3333 7.71749 18.3749C9.9225 17.9258 12.1887 18.1095 14.2917 18.8853C15.3125 19.2733 15.8842 20.4166 15.4962 21.5191C15.1083 22.5808 13.9242 23.1116 12.8625 22.7237C11.3721 22.0703 9.69791 22.0295 8.16666 22.6012C7.51333 23.1524 7.51333 24.2958 7.51333 25.1941C7.51333 26.7049 8.26874 28.1137 9.55499 28.9303C10.6371 29.4816 11.8417 29.7674 13.0462 29.747C12.74 29.2162 12.4746 28.6649 12.25 28.0933C12.0893 27.5687 12.1382 27.0023 12.3866 26.5131C12.6349 26.0239 13.0633 25.65 13.5816 25.4702C14.0999 25.2904 14.6678 25.3186 15.1658 25.5488C15.6637 25.7791 16.053 26.1935 16.2517 26.7049C17.0683 29.0324 19.1508 30.6249 21.6008 30.8903C24.3979 30.7474 26.8887 29.0937 28.1137 26.5416C28.5833 23.7241 30.8496 23.4791 33.3404 23.4791ZM37.4237 38.7303L36.1579 36.0762L34.7083 36.4028L36.75 38.9549L37.4237 38.7303V38.7303ZM27.93 21.1516C27.9477 20.63 27.7651 20.1215 27.4196 19.7304C27.074 19.3393 26.5919 19.0953 26.0721 19.0487C24.6225 18.967 23.2137 19.457 22.1317 20.4166C20.9679 21.6008 20.3554 23.2341 20.4167 24.8878C20.4167 25.4293 20.6318 25.9486 21.0147 26.3315C21.3975 26.7144 21.9168 26.9295 22.4583 26.9295C23.6221 26.9295 24.5 26.0108 24.5 24.8878C24.5 24.3366 24.6429 23.7853 24.9696 23.3362C25.2146 23.132 25.5208 23.0299 25.8475 23.0299C26.9704 23.0912 27.93 22.2541 27.93 21.1516Z" fill="#3F4BFF"/>
<path d="M63 13.2769V35.6289H67.5512V21.0259H67.7354L73.4785 35.5198H76.5776L82.3208 21.0805H82.505V35.6289H87.0561V13.2769H81.2697L75.1581 28.2947H74.898L68.7865 13.2769H63Z" fill="#333333"/>
<path d="M90.8352 35.6289H95.4514V18.8649H90.8352V35.6289ZM93.1541 16.704C94.5303 16.704 95.6573 15.6453 95.6573 14.3465C95.6573 13.0587 94.5303 12 93.1541 12C91.7888 12 90.6618 13.0587 90.6618 14.3465C90.6618 15.6453 91.7888 16.704 93.1541 16.704Z" fill="#333333"/>
<path d="M103.765 25.9372C103.776 23.7763 105.055 22.5102 106.919 22.5102C108.772 22.5102 109.888 23.7326 109.877 25.7844V35.6289H114.493V24.955C114.493 21.0477 112.218 18.6467 108.75 18.6467C106.279 18.6467 104.491 19.869 103.744 21.8226H103.549V18.8649H99.1492V35.6289H103.765V25.9372Z" fill="#333333"/>
<path d="M124.265 35.9018C126.952 35.9018 128.35 34.3411 128.989 32.9441H129.184V35.6289H133.735V13.2769H129.13V21.6808H128.989C128.371 20.3165 127.039 18.6467 124.254 18.6467C120.602 18.6467 117.514 21.5061 117.514 27.2688C117.514 32.8786 120.472 35.9018 124.265 35.9018ZM125.727 32.2019C123.463 32.2019 122.227 30.1719 122.227 27.2469C122.227 24.3438 123.441 22.3465 125.727 22.3465C127.971 22.3465 129.228 24.2565 129.228 27.2469C129.228 30.2374 127.949 32.2019 125.727 32.2019Z" fill="#333333"/>
<path d="M144.095 16.1801H151.008V35.6289H154.346V16.1801H161.27V13.2769H144.095V16.1801Z" fill="#333333"/>
<path d="M167.384 36C170.136 36 171.686 34.5921 172.304 33.337H172.434V35.6289H175.598V24.4966C175.598 19.618 171.784 18.6467 169.14 18.6467C166.127 18.6467 163.353 19.869 162.269 22.925L165.314 23.6235C165.791 22.4338 167.005 21.2879 169.183 21.2879C171.274 21.2879 172.347 22.3902 172.347 24.2892V24.3656C172.347 25.5553 171.133 25.5334 168.143 25.8827C164.989 26.2538 161.76 27.0832 161.76 30.8922C161.76 34.1883 164.22 36 167.384 36ZM168.088 33.3806C166.257 33.3806 164.935 32.5512 164.935 30.9359C164.935 29.1896 166.474 28.5675 168.349 28.3165C169.4 28.1746 171.892 27.8909 172.358 27.4216V29.5825C172.358 31.5689 170.787 33.3806 168.088 33.3806Z" fill="#333333"/>
<path d="M183.153 13.2769H179.913V35.6289H183.153V13.2769Z" fill="#333333"/>
<path d="M187.512 35.6289H190.752V29.6808L192.367 28.0546L198.023 35.6289H202L194.805 26.0573L201.545 18.8649H197.666L191.034 25.9591H190.752V13.2769H187.512V35.6289Z" fill="#333333"/>
</svg>
